<?xml version="1.0" encoding="UTF-8" standalone="no"?>
<!-- Created with Inkscape (http://www.inkscape.org/) -->

<svg
   xmlns:dc="http://purl.org/dc/elements/1.1/"
   xmlns:cc="http://creativecommons.org/ns#"
   xmlns:rdf="http://www.w3.org/1999/02/22-rdf-syntax-ns#"
   xmlns:svg="http://www.w3.org/2000/svg"
   xmlns="http://www.w3.org/2000/svg"
   xmlns:sodipodi="http://sodipodi.sourceforge.net/DTD/sodipodi-0.dtd"
   xmlns:inkscape="http://www.inkscape.org/namespaces/inkscape"
   width="67.73333mm"
   height="67.73333mm"
   viewBox="0 0 67.73333 67.73333"
   version="1.1"
   id="svg1107"
   inkscape:version="0.92.2 5c3e80d, 2017-08-06"
   sodipodi:docname="placeholder2.svg">
  <defs
     id="defs1101" />
  <sodipodi:namedview
     id="base"
     pagecolor="#ffffff"
     bordercolor="#666666"
     borderopacity="1.0"
     inkscape:pageopacity="0.0"
     inkscape:pageshadow="2"
     inkscape:zoom="1.979899"
     inkscape:cx="33.067845"
     inkscape:cy="93.440528"
     inkscape:document-units="mm"
     inkscape:current-layer="layer1"
     showgrid="false"
     fit-margin-top="0"
     fit-margin-left="0"
     fit-margin-right="0"
     fit-margin-bottom="0"
     inkscape:window-width="1920"
     inkscape:window-height="1155"
     inkscape:window-x="0"
     inkscape:window-y="1"
     inkscape:window-maximized="1" />
  <metadata
     id="metadata1104">
    <rdf:RDF>
      <cc:Work
         rdf:about="">
        <dc:format>image/svg+xml</dc:format>
        <dc:type
           rdf:resource="http://purl.org/dc/dcmitype/StillImage" />
        <dc:title></dc:title>
      </cc:Work>
    </rdf:RDF>
  </metadata>
  <g
     inkscape:label="Layer 1"
     inkscape:groupmode="layer"
     id="layer1"
     transform="translate(-32.684986,-111.3381)">
    <rect
       style="opacity:1;vector-effect:none;fill:#c5c5c5;fill-opacity:1;stroke:none;stroke-width:3.9176991;stroke-linecap:butt;stroke-linejoin:round;stroke-miterlimit:4;stroke-dasharray:none;stroke-dashoffset:0;stroke-opacity:1"
       id="rect1691"
       width="67.73333"
       height="67.73333"
       x="32.684986"
       y="111.3381" />
    <g
       id="g1689"
       transform="matrix(0.24159843,0,0,0.24159843,31.554579,107.16471)">
      <path
         d="M 111.4693,103.80622 H 94.149707 c -3.66779,0 -6.6222,-2.95441 -6.6222,-6.622206 0,-3.667795 2.95441,-6.622238 6.6222,-6.622238 H 111.4693 c 3.6678,0 6.62224,2.954443 6.62224,6.622238 0,3.667796 -2.95444,6.622206 -6.62224,6.622206"
         style="fill:#26486a;fill-opacity:1;fill-rule:nonzero;stroke:none;stroke-width:0.35277775"
         id="path926"
         inkscape:connector-curvature="0" />
      <path
         d="m 81.414397,101.76861 h -6.11276 c -1.42624,0 -2.54702,-1.12078 -2.54702,-2.546987 0,-1.42621 1.12078,-2.54702 2.54702,-2.54702 h 6.11276 c 1.42653,0 2.54702,1.12081 2.54702,2.54702 0,1.426207 -1.12049,2.546987 -2.54702,2.546987"
         style="fill:#71777c;fill-opacity:1;fill-rule:nonzero;stroke:none;stroke-width:0.35277775"
         id="path928"
         inkscape:connector-curvature="0" />
      <path
         d="m 130.31713,101.76861 h -6.11283 c -1.42618,0 -2.54699,-1.12078 -2.54699,-2.546987 0,-1.42621 1.12081,-2.54702 2.54699,-2.54702 h 6.11283 c 1.42649,0 2.54702,1.12081 2.54702,2.54702 0,1.426207 -1.12053,2.546987 -2.54702,2.546987"
         style="fill:#71777c;fill-opacity:1;fill-rule:nonzero;stroke:none;stroke-width:0.35277775"
         id="path930"
         inkscape:connector-curvature="0" />
      <path
         d="M 134.39231,149.65251 H 71.226427 c -3.97323,0 -7.13162,-3.26009 -7.13162,-7.13158 v -36.6771 c 0,-3.87153 3.15839,-7.131618 7.13162,-7.131618 h 63.165883 c 3.87149,0 7.13193,3.260088 7.13193,7.131618 v 36.6771 c 0,3.87149 -3.26044,7.13158 -7.13193,7.13158"
         style="fill:#cdd0d3;fill-opacity:1;fill-rule:nonzero;stroke:none;stroke-width:0.35277775"
         id="path932"
         inkscape:connector-curvature="0" />
      <path
         d="m 64.094807,108.39081 h 77.429403 v 31.58314 H 64.094807 Z"
         style="fill:#585d62;fill-opacity:1;fill-rule:nonzero;stroke:none;stroke-width:0.35277775"
         id="path934"
         inkscape:connector-curvature="0" />
      <path
         d="m 102.80953,103.80622 c 11.25333,0 20.37602,9.12269 20.37602,20.37598 0,11.25361 -9.12269,20.37631 -20.37602,20.37631 -11.253613,0 -20.376313,-9.1227 -20.376313,-20.37631 0,-11.25329 9.1227,-20.37598 20.376313,-20.37598"
         style="fill:#393a3c;fill-opacity:1;fill-rule:nonzero;stroke:none;stroke-width:0.35277775"
         id="path936"
         inkscape:connector-curvature="0" />
      <path
         d="m 102.80953,108.90022 c 8.43989,0 15.28201,6.84209 15.28201,15.28198 0,8.44021 -6.84212,15.2823 -15.28201,15.2823 -8.440213,0 -15.282023,-6.84209 -15.282023,-15.2823 0,-8.43989 6.84181,-15.28198 15.282023,-15.28198"
         style="fill:#bcbfc2;fill-opacity:1;fill-rule:nonzero;stroke:none;stroke-width:0.35277775"
         id="path938"
         inkscape:connector-curvature="0" />
      <path
         d="m 111.06192,119.19022 c -1.73221,-2.8527 -4.78861,-4.68662 -8.25239,-4.68662 -5.298023,0 -9.678603,4.3809 -9.678603,9.6786 0,1.73221 0.40739,3.26041 1.22248,4.68662 3.7695,-0.81509 10.901113,-3.1581 16.708513,-9.6786"
         style="fill:#9ca1a7;fill-opacity:1;fill-rule:nonzero;stroke:none;stroke-width:0.35277775"
         id="path940"
         inkscape:connector-curvature="0" />
      <path
         d="m 94.353407,128.86882 c 1.6299,2.95469 4.78829,4.9923 8.456123,4.9923 5.2977,0 9.6786,-4.3809 9.6786,-9.67892 0,-1.83359 -0.50941,-3.46378 -1.42621,-4.99198 -5.8074,6.5205 -12.939013,8.86351 -16.708513,9.6786"
         style="fill:#91989d;fill-opacity:1;fill-rule:nonzero;stroke:none;stroke-width:0.35277775"
         id="path942"
         inkscape:connector-curvature="0" />
      <path
         d="m 81.923807,105.84383 h -10.18801 c -0.81509,0 -1.5282,-0.71311 -1.5282,-1.5282 0,-0.81509 0.71311,-1.5282 1.5282,-1.5282 h 10.18801 c 0.8151,0 1.5282,0.71311 1.5282,1.5282 0,0.81509 -0.7131,1.5282 -1.5282,1.5282"
         style="fill:#203c53;fill-opacity:1;fill-rule:nonzero;stroke:none;stroke-width:0.35277775"
         id="path944"
         inkscape:connector-curvature="0" />
      <path
         d="m 72.245207,103.29681 c 0.56283,0 1.01883,0.456 1.01883,1.01882 0,0.56278 -0.456,1.01879 -1.01883,1.01879 -0.5625,0 -1.01878,-0.45601 -1.01878,-1.01879 0,-0.56282 0.45628,-1.01882 1.01878,-1.01882"
         style="fill:#162530;fill-opacity:1;fill-rule:nonzero;stroke:none;stroke-width:0.35277775"
         id="path946"
         inkscape:connector-curvature="0" />
    </g>
    <path
       style="fill:#333333;stroke-width:0.01084553"
       d="m 75.54504,168.00806 c -0.137115,-0.004 -0.251825,-0.0122 -0.254868,-0.0203 -0.0029,-0.004 -0.06413,-0.0122 -0.135695,-0.0162 -0.221016,-0.0122 -0.541155,-0.0406 -0.563966,-0.0496 -0.01177,-0.004 -0.129078,-0.0203 -0.260308,-0.0325 -0.13123,-0.0122 -0.243503,-0.0284 -0.249429,-0.0325 -0.0061,-0.004 -0.09385,-0.0203 -0.1952,-0.0325 -0.101396,-0.0122 -0.194145,-0.0284 -0.206079,-0.0325 -0.01177,-0.004 -0.09247,-0.0203 -0.178964,-0.0325 -0.08646,-0.0122 -0.159684,-0.0284 -0.162688,-0.0325 -0.0029,-0.004 -0.07083,-0.0203 -0.150875,-0.0325 -0.08001,-0.0122 -0.153189,-0.0284 -0.162687,-0.0325 -0.0097,-0.004 -0.07574,-0.0203 -0.147385,-0.0325 -0.0716,-0.0122 -0.132569,-0.0284 -0.135573,-0.0325 -0.0029,-0.004 -0.06157,-0.0163 -0.130133,-0.0325 -0.06856,-0.0122 -0.127171,-0.0284 -0.130175,-0.0325 -0.0029,-0.004 -0.03491,-0.0122 -0.07054,-0.0203 -0.03572,-0.008 -0.08942,-0.0203 -0.119295,-0.0244 -0.02963,-0.004 -0.05667,-0.0163 -0.05963,-0.0203 -0.0029,-0.004 -0.05175,-0.0203 -0.108458,-0.0325 -0.05667,-0.0122 -0.10793,-0.0284 -0.113856,-0.0325 -0.0061,-0.004 -0.0548,-0.0203 -0.108458,-0.0325 -0.0537,-0.0122 -0.102492,-0.0284 -0.108458,-0.0325 -0.0061,-0.004 -0.0548,-0.0203 -0.108459,-0.0325 -0.0537,-0.0122 -0.100056,-0.0284 -0.103019,-0.0325 -0.0029,-0.004 -0.04692,-0.0203 -0.09758,-0.0325 -0.05066,-0.0122 -0.09466,-0.0284 -0.09758,-0.0325 -0.0029,-0.004 -0.02963,-0.0122 -0.05962,-0.0203 -0.02963,-0.008 -0.07379,-0.0244 -0.09758,-0.0366 -0.02395,-0.0122 -0.0727,-0.0284 -0.108458,-0.0366 -0.03572,-0.008 -0.07485,-0.0244 -0.08678,-0.0325 -0.01177,-0.008 -0.05833,-0.0244 -0.10302,-0.0406 -0.04477,-0.0122 -0.09109,-0.0325 -0.103019,-0.0406 -0.01177,-0.008 -0.05094,-0.0244 -0.08678,-0.0325 -0.03572,-0.0122 -0.06759,-0.0244 -0.07062,-0.0284 -0.0029,-0.004 -0.03734,-0.0203 -0.07595,-0.0325 -0.03897,-0.0122 -0.07586,-0.0284 -0.08244,-0.0325 -0.0069,-0.004 -0.04019,-0.0203 -0.07477,-0.0325 -0.0345,-0.0122 -0.06807,-0.0244 -0.07477,-0.0325 -0.0069,-0.004 -0.04497,-0.0203 -0.0852,-0.0325 -0.04019,-0.0122 -0.07318,-0.0284 -0.07318,-0.0325 0,-0.004 -0.0207,-0.0122 -0.04615,-0.0203 -0.02557,-0.008 -0.06316,-0.0244 -0.08402,-0.0325 -0.0207,-0.0122 -0.07209,-0.0366 -0.113898,-0.0532 -0.04173,-0.0203 -0.114953,-0.0528 -0.162687,-0.0755 -0.04773,-0.0244 -0.10509,-0.0479 -0.127414,-0.0557 -0.02232,-0.008 -0.04071,-0.0162 -0.04071,-0.0203 0,-0.004 -0.02801,-0.0162 -0.06239,-0.0325 -0.0345,-0.0122 -0.06482,-0.0284 -0.06779,-0.0325 -0.0029,-0.004 -0.03207,-0.0203 -0.06503,-0.0325 -0.03287,-0.0122 -0.06206,-0.0284 -0.06503,-0.0325 -0.0029,-0.004 -0.03207,-0.0203 -0.06503,-0.0325 -0.03287,-0.0122 -0.06206,-0.0284 -0.06503,-0.0325 -0.0029,-0.004 -0.0272,-0.0162 -0.05419,-0.0325 -0.07359,-0.0366 -0.275651,-0.14288 -0.379603,-0.20214 -0.05066,-0.0284 -0.106835,-0.0597 -0.124735,-0.0686 -0.01786,-0.008 -0.03491,-0.0203 -0.03816,-0.0244 -0.0029,-0.004 -0.02963,-0.0203 -0.05962,-0.0325 -0.02963,-0.0162 -0.05812,-0.0325 -0.06288,-0.0406 -0.0049,-0.008 -0.01461,-0.0122 -0.02192,-0.0122 -0.0069,0 -0.03856,-0.0163 -0.06953,-0.0366 -0.03085,-0.0203 -0.0608,-0.0366 -0.06621,-0.0366 -0.0049,0 -0.03856,-0.0203 -0.07359,-0.0435 -0.03531,-0.0244 -0.06994,-0.0435 -0.07741,-0.0435 -0.0077,0 -0.0134,-0.004 -0.0134,-0.0122 0,-0.004 -0.01096,-0.0162 -0.02435,-0.0203 -0.0134,-0.004 -0.04891,-0.0244 -0.07891,-0.0471 -0.03004,-0.0203 -0.06531,-0.041 -0.07863,-0.0451 -0.0134,-0.004 -0.02435,-0.0122 -0.02435,-0.0163 0,-0.004 -0.0089,-0.0122 -0.01908,-0.0162 -0.01055,-0.004 -0.04161,-0.0244 -0.06925,-0.0431 -0.0276,-0.0203 -0.05521,-0.0365 -0.06121,-0.0365 -0.0061,0 -0.02232,-0.0122 -0.03653,-0.0284 -0.01421,-0.0162 -0.02923,-0.0284 -0.03409,-0.0284 -0.01461,-3.2e-4 -0.164148,-0.10026 -0.173484,-0.11568 -0.0049,-0.008 -0.01421,-0.0163 -0.0207,-0.0163 -0.0069,0 -0.03775,-0.0203 -0.06945,-0.0435 -0.03167,-0.0244 -0.06267,-0.0435 -0.06904,-0.0435 -0.0069,0 -0.01461,-0.008 -0.01786,-0.0163 -0.0029,-0.008 -0.01096,-0.0162 -0.01664,-0.0162 -0.01177,0 -0.218337,-0.14978 -0.253935,-0.18387 -0.01258,-0.0122 -0.0272,-0.0203 -0.03288,-0.0203 -0.0061,0 -0.04643,-0.0284 -0.091,-0.0661 -0.04456,-0.0365 -0.09445,-0.073 -0.110854,-0.0816 -0.01624,-0.008 -0.02963,-0.0203 -0.02963,-0.0244 0,-0.004 -0.01096,-0.0163 -0.02435,-0.0203 -0.0134,-0.004 -0.0595,-0.0406 -0.102411,-0.0755 -0.04291,-0.0366 -0.08305,-0.0661 -0.08922,-0.0661 -0.0061,0 -0.01908,-0.0122 -0.02882,-0.0284 -0.0097,-0.0162 -0.02435,-0.0284 -0.03207,-0.0284 -0.0077,0 -0.02314,-0.0122 -0.03409,-0.0244 -0.01096,-0.0122 -0.0272,-0.0284 -0.03612,-0.0325 -0.01502,-0.004 -0.198853,-0.16195 -0.278979,-0.23624 -0.01907,-0.0162 -0.03897,-0.0325 -0.04339,-0.0325 -0.0049,0 -0.02313,-0.0162 -0.04104,-0.0325 -0.01786,-0.0162 -0.113086,-0.10513 -0.211477,-0.19402 -0.09843,-0.0885 -0.195769,-0.17901 -0.216307,-0.20052 -0.0207,-0.0203 -0.04132,-0.0406 -0.04623,-0.0406 -0.01177,0 -0.691859,-0.68029 -0.691859,-0.69186 0,-0.004 -0.01786,-0.0244 -0.03937,-0.0463 -0.02151,-0.0203 -0.111827,-0.11812 -0.200477,-0.21634 -0.08865,-0.0982 -0.17592,-0.19363 -0.193901,-0.21148 -0.01786,-0.0163 -0.03288,-0.0366 -0.03288,-0.041 0,-0.004 -0.01461,-0.0244 -0.03247,-0.0435 -0.07436,-0.0799 -0.230068,-0.26384 -0.236278,-0.27886 -0.0039,-0.008 -0.01786,-0.0244 -0.03166,-0.0366 -0.0138,-0.0122 -0.02517,-0.0244 -0.02517,-0.0325 0,-0.008 -0.01218,-0.0203 -0.0272,-0.0325 -0.01502,-0.008 -0.0272,-0.0244 -0.0272,-0.0284 0,-0.004 -0.02963,-0.0463 -0.06612,-0.0893 -0.03612,-0.043 -0.07042,-0.0889 -0.07566,-0.10228 -0.0049,-0.0122 -0.01461,-0.0244 -0.02029,-0.0244 -0.0061,0 -0.01786,-0.0122 -0.02638,-0.0284 -0.0089,-0.0162 -0.04525,-0.0661 -0.08167,-0.11081 -0.03653,-0.0447 -0.06612,-0.0856 -0.06612,-0.0909 0,-0.004 -0.0097,-0.0203 -0.02192,-0.0325 -0.03612,-0.0365 -0.183997,-0.24232 -0.183997,-0.25491 0,-0.008 -0.0049,-0.0122 -0.01136,-0.0122 -0.0061,0 -0.01421,-0.008 -0.01826,-0.0203 -0.0039,-0.0122 -0.02557,-0.0439 -0.0485,-0.0743 -0.02273,-0.0284 -0.0414,-0.0604 -0.0414,-0.0673 0,-0.008 -0.0069,-0.0162 -0.01461,-0.0203 -0.01543,-0.008 -0.115562,-0.15911 -0.115847,-0.17332 -1.29e-4,-0.004 -0.01218,-0.0203 -0.0272,-0.0325 -0.01502,-0.0122 -0.02679,-0.0325 -0.02679,-0.0366 0,-0.004 -0.01624,-0.0325 -0.03612,-0.0613 -0.01989,-0.0284 -0.03937,-0.0589 -0.04311,-0.0694 -0.0039,-0.0122 -0.01136,-0.0203 -0.01705,-0.0203 -0.0061,0 -0.0138,-0.0122 -0.01827,-0.0244 -0.0039,-0.0122 -0.02476,-0.0487 -0.04525,-0.0787 -0.0207,-0.0284 -0.04189,-0.0654 -0.04704,-0.0787 -0.0049,-0.0122 -0.01421,-0.0244 -0.02029,-0.0244 -0.0061,0 -0.01096,-0.004 -0.01096,-0.0122 -8e-6,-0.008 -0.01948,-0.0422 -0.04339,-0.0775 -0.02395,-0.0366 -0.0434,-0.0682 -0.0434,-0.0734 0,-0.004 -0.01705,-0.0366 -0.03815,-0.0661 -0.0207,-0.0325 -0.03816,-0.0621 -0.03816,-0.0695 0,-0.008 -0.0061,-0.0162 -0.0134,-0.0203 -0.0077,-0.004 -0.02557,-0.0325 -0.04059,-0.0629 -0.01461,-0.0284 -0.02963,-0.0569 -0.03328,-0.0597 -0.0039,-0.003 -0.0138,-0.0203 -0.02273,-0.0366 -0.0089,-0.0163 -0.03978,-0.0738 -0.06876,-0.12461 -0.05902,-0.10392 -0.166584,-0.30606 -0.201979,-0.37953 -0.01299,-0.0284 -0.02679,-0.0512 -0.03045,-0.0544 -0.0039,-0.003 -0.01867,-0.0325 -0.03247,-0.0649 -0.0138,-0.0325 -0.02841,-0.0621 -0.03247,-0.0649 -0.0039,-0.003 -0.01867,-0.0325 -0.03247,-0.0649 -0.0138,-0.0325 -0.02882,-0.0621 -0.03287,-0.0649 -0.0039,-0.003 -0.01908,-0.0325 -0.03328,-0.0677 -0.01421,-0.0325 -0.02842,-0.0625 -0.03206,-0.0625 -0.0039,0 -0.01299,-0.0203 -0.0207,-0.0406 -0.0077,-0.0244 -0.03287,-0.0795 -0.05557,-0.12746 -0.02273,-0.0479 -0.05686,-0.12095 -0.07554,-0.16276 -0.01868,-0.0418 -0.0427,-0.093 -0.05322,-0.11406 -0.01055,-0.0203 -0.02557,-0.0589 -0.03369,-0.084 -0.0077,-0.0244 -0.01786,-0.0459 -0.02192,-0.0459 -0.0039,0 -0.01867,-0.0325 -0.03206,-0.0731 -0.0134,-0.0406 -0.02882,-0.0787 -0.03409,-0.0852 -0.0049,-0.008 -0.01908,-0.0406 -0.03125,-0.0747 -0.01177,-0.0325 -0.02557,-0.0682 -0.03085,-0.0747 -0.0049,-0.008 -0.0207,-0.0439 -0.0345,-0.0824 -0.0138,-0.0406 -0.02842,-0.073 -0.03206,-0.0759 -0.0039,-0.003 -0.01543,-0.0366 -0.02598,-0.0706 -0.01096,-0.0366 -0.02598,-0.0751 -0.03328,-0.0869 -0.0077,-0.0122 -0.02476,-0.0584 -0.03856,-0.1031 -0.0138,-0.0447 -0.03125,-0.0913 -0.03856,-0.1031 -0.0077,-0.0122 -0.02151,-0.0512 -0.03045,-0.0869 -0.0089,-0.0366 -0.02598,-0.0844 -0.03694,-0.10838 -0.01136,-0.0244 -0.02679,-0.0677 -0.03491,-0.0974 -0.0077,-0.0284 -0.01746,-0.0569 -0.02151,-0.0597 -0.0039,-0.003 -0.01867,-0.0471 -0.03247,-0.0978 -0.01421,-0.0508 -0.02882,-0.0946 -0.03287,-0.0974 -0.0039,-0.003 -0.01786,-0.0491 -0.03125,-0.1027 -0.0134,-0.0536 -0.02842,-0.10229 -0.03328,-0.10838 -0.0049,-0.004 -0.01989,-0.0552 -0.03328,-0.10878 -0.0134,-0.0536 -0.02801,-0.10229 -0.03287,-0.10838 -0.0049,-0.004 -0.01908,-0.0573 -0.03247,-0.11406 -0.01299,-0.0569 -0.0276,-0.10553 -0.03167,-0.10838 -0.0039,-0.003 -0.0138,-0.0366 -0.02151,-0.0702 -0.0077,-0.0366 -0.01908,-0.0897 -0.02517,-0.11934 -0.0061,-0.0284 -0.01502,-0.0569 -0.01907,-0.0597 -0.0039,-0.003 -0.01908,-0.0617 -0.03287,-0.1303 -0.0138,-0.0686 -0.02842,-0.12704 -0.03207,-0.13029 -0.0039,-0.003 -0.01786,-0.0642 -0.03125,-0.13557 -0.0134,-0.0714 -0.02842,-0.13802 -0.03369,-0.14735 -0.0049,-0.008 -0.02029,-0.0828 -0.03409,-0.16277 -0.0138,-0.0799 -0.02801,-0.14774 -0.03206,-0.15099 -0.0039,-0.003 -0.01786,-0.0763 -0.03126,-0.16277 -0.01299,-0.0865 -0.02842,-0.16683 -0.03328,-0.17901 -0.0049,-0.0122 -0.02029,-0.10472 -0.03328,-0.20619 -0.01299,-0.10148 -0.0272,-0.18916 -0.03167,-0.19525 -0.0039,-0.004 -0.01908,-0.11812 -0.03247,-0.24963 -0.0134,-0.13111 -0.02842,-0.24841 -0.03369,-0.26019 -0.0097,-0.0244 -0.03775,-0.34298 -0.04968,-0.56396 -0.0039,-0.0714 -0.01055,-0.13273 -0.01502,-0.13557 -0.01461,-0.008 -0.03206,-0.61897 -0.03206,-1.10626 0,-0.48725 0.01786,-1.09623 0.03206,-1.10622 0.0039,-0.003 0.01096,-0.0641 0.01502,-0.13557 0.01218,-0.22122 0.04019,-0.54116 0.04968,-0.56397 0.0049,-0.0122 0.01989,-0.12908 0.03369,-0.26019 0.0134,-0.1311 0.02801,-0.24354 0.03247,-0.24963 0.0039,-0.004 0.01868,-0.0938 0.03167,-0.19523 0.01299,-0.10148 0.02801,-0.19403 0.03328,-0.20621 0.0049,-0.0122 0.02029,-0.0925 0.03328,-0.179 0.01299,-0.0865 0.0272,-0.15993 0.03126,-0.16277 0.0039,-0.003 0.01827,-0.071 0.03206,-0.151 0.0134,-0.0799 0.02882,-0.15303 0.03409,-0.16277 0.0049,-0.008 0.02029,-0.0759 0.03369,-0.14734 0.0134,-0.0715 0.0276,-0.13273 0.03125,-0.13557 0.0039,-0.003 0.01827,-0.0617 0.03207,-0.1303 0.0138,-0.0686 0.02882,-0.12705 0.03287,-0.1303 0.0039,-0.003 0.0134,-0.0365 0.0211,-0.0702 0.0077,-0.0366 0.01908,-0.0897 0.02517,-0.11934 0.0061,-0.0284 0.01502,-0.0569 0.01908,-0.0597 0.0039,-0.003 0.01867,-0.052 0.03166,-0.10837 0.0134,-0.0569 0.02801,-0.10798 0.03247,-0.11366 0.0049,-0.004 0.01948,-0.0548 0.03288,-0.10838 0.0134,-0.0536 0.02842,-0.10269 0.03328,-0.10878 0.0049,-0.004 0.01989,-0.0548 0.03328,-0.10838 0.0134,-0.0535 0.0272,-0.0999 0.03125,-0.10269 0.0039,-0.003 0.01867,-0.0471 0.03287,-0.0974 0.01421,-0.0508 0.02882,-0.0946 0.03247,-0.0974 0.0039,-0.003 0.0134,-0.0284 0.02151,-0.0596 0.0077,-0.0284 0.02354,-0.0738 0.03491,-0.0974 0.01136,-0.0244 0.02801,-0.0726 0.03694,-0.10838 0.0089,-0.0366 0.02273,-0.0751 0.03045,-0.0869 0.0077,-0.0122 0.02517,-0.0584 0.03897,-0.1031 0.0138,-0.0447 0.03126,-0.0909 0.03856,-0.1031 0.0077,-0.0122 0.02232,-0.0512 0.03328,-0.0869 0.01096,-0.0366 0.02314,-0.0673 0.0272,-0.0706 0.0039,-0.003 0.01827,-0.0365 0.03166,-0.0759 0.01299,-0.0406 0.02842,-0.0759 0.03328,-0.0824 0.0049,-0.008 0.01908,-0.0406 0.03085,-0.0747 0.01177,-0.0366 0.02598,-0.0682 0.03125,-0.0747 0.0049,-0.008 0.0207,-0.0451 0.03409,-0.0852 0.01339,-0.0406 0.02801,-0.073 0.03206,-0.073 0.0039,0 0.01421,-0.0203 0.02192,-0.0463 0.0077,-0.0244 0.02314,-0.0634 0.03369,-0.084 0.01055,-0.0203 0.0345,-0.0722 0.05322,-0.11406 0.01867,-0.0418 0.05273,-0.11487 0.07554,-0.16277 0.02273,-0.0475 0.04781,-0.10513 0.05557,-0.12746 0.0077,-0.0244 0.01705,-0.0406 0.0207,-0.0406 0.0039,0 0.01826,-0.0284 0.03206,-0.0625 0.01421,-0.0325 0.02882,-0.0649 0.03328,-0.0678 0.0039,-0.003 0.01908,-0.0325 0.03288,-0.0649 0.0138,-0.0325 0.02841,-0.0621 0.03247,-0.0649 0.0039,-0.003 0.01868,-0.0325 0.03248,-0.0649 0.0138,-0.0325 0.02801,-0.0621 0.03125,-0.0649 0.0029,-0.003 0.01705,-0.0284 0.03084,-0.054 0.05784,-0.11366 0.154164,-0.29388 0.202913,-0.37953 0.02882,-0.0508 0.05971,-0.10675 0.06876,-0.12461 0.0089,-0.0162 0.01948,-0.0366 0.02273,-0.0366 0.0039,-0.003 0.01868,-0.0284 0.03328,-0.0597 0.01461,-0.0284 0.03288,-0.058 0.04059,-0.0629 0.0077,-0.004 0.0134,-0.0162 0.0134,-0.0203 0,-0.008 0.01705,-0.0406 0.03816,-0.0694 0.0207,-0.0325 0.03815,-0.0609 0.03815,-0.0662 0,-0.004 0.01948,-0.0406 0.0434,-0.0734 0.02395,-0.0366 0.04339,-0.0698 0.04339,-0.0775 1.2e-5,-0.008 0.0049,-0.0122 0.01096,-0.0122 0.0061,0 0.01543,-0.0122 0.02029,-0.0244 0.0049,-0.0122 0.02638,-0.0487 0.047,-0.0787 0.0207,-0.0284 0.04112,-0.0654 0.04525,-0.0787 0.0039,-0.0122 0.01258,-0.0244 0.01827,-0.0244 0.0061,0 0.0134,-0.008 0.01705,-0.0203 0.0039,-0.0122 0.02314,-0.0418 0.04311,-0.0694 0.01989,-0.0284 0.03612,-0.0552 0.03612,-0.0613 0,-0.004 0.01218,-0.0244 0.02679,-0.0366 0.01461,-0.0122 0.02679,-0.0284 0.0272,-0.0325 3.24e-4,-0.0162 0.100299,-0.16399 0.115845,-0.17332 0.0077,-0.004 0.01461,-0.0122 0.01461,-0.0203 0,-0.008 0.01867,-0.0366 0.0414,-0.0674 0.02273,-0.0284 0.04456,-0.0638 0.0485,-0.0743 0.0039,-0.0122 0.01218,-0.0203 0.01826,-0.0203 0.0061,0 0.01136,-0.004 0.01136,-0.0122 0,-0.0122 0.147791,-0.21756 0.183999,-0.2549 0.01218,-0.0122 0.02192,-0.0284 0.02192,-0.0325 0,-0.004 0.02963,-0.0463 0.06612,-0.0909 0.03653,-0.0447 0.0731,-0.0946 0.08167,-0.11081 0.0089,-0.0162 0.02029,-0.0284 0.02638,-0.0284 0.0061,0 0.01502,-0.0122 0.02029,-0.0244 0.0049,-0.0122 0.03937,-0.0597 0.07566,-0.10229 0.03612,-0.043 0.06612,-0.0828 0.06612,-0.0893 0,-0.004 0.01218,-0.0203 0.0272,-0.0284 0.01502,-0.008 0.0272,-0.0244 0.0272,-0.0325 0,-0.008 0.01137,-0.0244 0.02517,-0.0325 0.0138,-0.0122 0.02801,-0.0284 0.03166,-0.0366 0.0061,-0.0162 0.161836,-0.1989 0.236279,-0.27886 0.01786,-0.0203 0.03247,-0.0406 0.03247,-0.0435 0,-0.004 0.01461,-0.0244 0.03287,-0.041 0.01786,-0.0162 0.105252,-0.11324 0.193901,-0.21148 0.08865,-0.0982 0.178883,-0.19564 0.200477,-0.21634 0.02151,-0.0203 0.03937,-0.0414 0.03937,-0.0463 0,-0.0122 0.6803,-0.69183 0.691859,-0.69183 0.0049,0 0.02557,-0.0162 0.04623,-0.0406 0.0207,-0.0203 0.117916,-0.11162 0.216348,-0.20051 0.09843,-0.0885 0.193577,-0.17576 0.211478,-0.19402 0.01786,-0.0162 0.03612,-0.0325 0.04104,-0.0325 0.0049,0 0.02435,-0.0163 0.04339,-0.0325 0.08009,-0.0742 0.263879,-0.23015 0.278979,-0.23623 0.0089,-0.004 0.02517,-0.0162 0.03612,-0.0325 0.01096,-0.0122 0.02598,-0.0244 0.03409,-0.0244 0.0077,0 0.02232,-0.0122 0.03206,-0.0284 0.0097,-0.0162 0.02273,-0.0284 0.02882,-0.0284 0.0061,0 0.04631,-0.0284 0.08922,-0.0661 0.04291,-0.0366 0.08893,-0.0703 0.10241,-0.0755 0.01339,-0.004 0.02435,-0.0163 0.02435,-0.0203 0,-0.004 0.0134,-0.0162 0.02963,-0.0244 0.01624,-0.008 0.06633,-0.0451 0.110853,-0.0816 0.04456,-0.0366 0.08561,-0.0661 0.091,-0.0661 0.0061,0 0.02029,-0.008 0.03287,-0.0203 0.03531,-0.0325 0.242043,-0.18388 0.253935,-0.18388 0.0061,0 0.0134,-0.008 0.01664,-0.0162 0.0029,-0.008 0.01136,-0.0163 0.01786,-0.0163 0.0069,0 0.03734,-0.0203 0.06904,-0.0435 0.03166,-0.0244 0.06287,-0.0435 0.06945,-0.0435 0.0069,0 0.01583,-0.008 0.0207,-0.0162 0.0089,-0.0163 0.159033,-0.11569 0.173484,-0.11569 0.0049,-1.6e-4 0.02029,-0.0122 0.03409,-0.0284 0.01421,-0.0162 0.03045,-0.0284 0.03653,-0.0284 0.0061,0 0.03409,-0.0163 0.06267,-0.0366 0.02842,-0.0203 0.05736,-0.0366 0.06413,-0.0366 0.0069,0 0.01502,-0.008 0.01867,-0.0162 0.0029,-0.008 0.01665,-0.0203 0.02923,-0.0244 0.01258,-0.004 0.04773,-0.0244 0.07761,-0.0451 0.03004,-0.0203 0.06543,-0.0418 0.07891,-0.0471 0.0134,-0.004 0.02435,-0.0162 0.02435,-0.0203 0,-0.004 0.0061,-0.0122 0.0134,-0.0122 0.0077,0 0.0423,-0.0203 0.07745,-0.0435 0.03531,-0.0244 0.06828,-0.0435 0.07359,-0.0435 0.0049,0 0.03531,-0.0163 0.0662,-0.0366 0.03085,-0.0203 0.06227,-0.0366 0.06957,-0.0366 0.0069,0 0.01705,-0.004 0.02192,-0.0122 0.0049,-0.008 0.03288,-0.0244 0.06287,-0.0406 0.02963,-0.0162 0.05667,-0.0284 0.05963,-0.0325 0.0029,-0.004 0.01989,-0.0122 0.03816,-0.0244 0.01786,-0.008 0.074,-0.0406 0.124735,-0.0686 0.103912,-0.0593 0.306013,-0.16641 0.379604,-0.20214 0.02679,-0.0122 0.05127,-0.0284 0.05423,-0.0325 0.0029,-0.004 0.03207,-0.0203 0.06503,-0.0325 0.03287,-0.0122 0.06206,-0.0284 0.06503,-0.0325 0.0029,-0.004 0.03206,-0.0203 0.06503,-0.0325 0.03287,-0.0122 0.06206,-0.0284 0.06503,-0.0325 0.0029,-0.004 0.03328,-0.0203 0.06779,-0.0325 0.0345,-0.0122 0.06239,-0.0284 0.06239,-0.0325 0,-0.004 0.01827,-0.0122 0.04071,-0.0203 0.02232,-0.008 0.07968,-0.0325 0.127414,-0.0556 0.04773,-0.0244 0.120919,-0.0569 0.162687,-0.0755 0.04181,-0.0203 0.09295,-0.0427 0.113898,-0.0531 0.0207,-0.0122 0.05873,-0.0244 0.08402,-0.0325 0.02557,-0.008 0.04615,-0.0163 0.04615,-0.0203 0,-0.004 0.03287,-0.0203 0.07318,-0.0325 0.04019,-0.0122 0.07863,-0.0284 0.0852,-0.0325 0.0069,-0.004 0.04019,-0.0203 0.07477,-0.0325 0.0345,-0.0122 0.06856,-0.0284 0.07574,-0.0325 0.0069,-0.004 0.04409,-0.0203 0.08203,-0.0325 0.03816,-0.0122 0.07172,-0.0244 0.07497,-0.0284 0.0029,-0.004 0.03531,-0.0163 0.07095,-0.0284 0.03572,-0.0122 0.07485,-0.0244 0.08678,-0.0325 0.01177,-0.008 0.05833,-0.0244 0.10302,-0.0406 0.04477,-0.0122 0.09108,-0.0325 0.103019,-0.0406 0.01177,-0.008 0.05098,-0.0203 0.08678,-0.0325 0.03572,-0.008 0.08459,-0.0244 0.108458,-0.0366 0.02395,-0.0122 0.06779,-0.0284 0.09758,-0.0365 0.02963,-0.008 0.05667,-0.0163 0.05962,-0.0203 0.0029,-0.004 0.04692,-0.0203 0.09758,-0.0325 0.05066,-0.0122 0.09466,-0.0284 0.09758,-0.0325 0.0029,-0.004 0.04928,-0.0162 0.102938,-0.0325 0.05362,-0.0122 0.102451,-0.0284 0.108458,-0.0325 0.0061,-0.004 0.05488,-0.0203 0.10854,-0.0325 0.0537,-0.0122 0.102491,-0.0284 0.108458,-0.0325 0.0061,-0.004 0.05727,-0.0203 0.113857,-0.0325 0.05667,-0.0122 0.105454,-0.0284 0.108458,-0.0325 0.0029,-0.004 0.03491,-0.0122 0.07054,-0.0203 0.03572,-0.008 0.08942,-0.0203 0.119296,-0.0244 0.02963,-0.004 0.05667,-0.0162 0.05963,-0.0203 0.0029,-0.004 0.06157,-0.0203 0.130174,-0.0325 0.06856,-0.0122 0.127171,-0.0284 0.130133,-0.0325 0.0029,-0.004 0.06393,-0.0162 0.135573,-0.0325 0.07164,-0.0122 0.137886,-0.0284 0.147385,-0.0325 0.0097,-0.004 0.08272,-0.0203 0.162687,-0.0325 0.07997,-0.0122 0.147872,-0.0284 0.150875,-0.0325 0.0029,-0.004 0.07615,-0.0162 0.162688,-0.0325 0.08646,-0.0122 0.16703,-0.0284 0.178964,-0.0325 0.01177,-0.004 0.104683,-0.0203 0.206079,-0.0325 0.101395,-0.0122 0.189233,-0.0284 0.1952,-0.0325 0.0061,-0.004 0.11824,-0.0203 0.249429,-0.0325 0.13123,-0.0122 0.248374,-0.0284 0.260308,-0.0325 0.02273,-0.008 0.34295,-0.0366 0.563966,-0.0496 0.07164,-0.004 0.13257,-0.0122 0.135573,-0.0162 0.01015,-0.0162 0.618978,-0.0325 1.106241,-0.0325 0.487262,0 1.096247,0.0162 1.106241,0.0325 0.0029,0.004 0.06405,0.0122 0.135572,0.0162 0.221016,0.0122 0.541154,0.0406 0.563966,0.0496 0.01177,0.004 0.129079,0.0203 0.260308,0.0325 0.131229,0.0122 0.243462,0.0284 0.24947,0.0325 0.0061,0.004 0.09385,0.0203 0.195201,0.0325 0.101395,0.0122 0.194144,0.0284 0.206078,0.0325 0.01177,0.004 0.09247,0.0203 0.178965,0.0325 0.08646,0.0122 0.159683,0.0284 0.162687,0.0325 0.0029,0.004 0.07083,0.0203 0.150875,0.0325 0.08001,0.0122 0.153188,0.0284 0.162687,0.0325 0.0097,0.004 0.07586,0.0203 0.147385,0.0325 0.0716,0.0122 0.132569,0.0284 0.135573,0.0325 0.0029,0.004 0.06158,0.0203 0.130133,0.0325 0.06856,0.0122 0.12717,0.0284 0.130174,0.0325 0.0029,0.004 0.03491,0.0122 0.07042,0.0203 0.03572,0.008 0.08954,0.0203 0.119297,0.0244 0.02963,0.004 0.05667,0.0163 0.05962,0.0203 0.0029,0.004 0.05175,0.0203 0.108458,0.0325 0.05667,0.0122 0.107891,0.0284 0.113857,0.0325 0.0061,0.004 0.0548,0.0203 0.108458,0.0325 0.0537,0.0122 0.102492,0.0284 0.108459,0.0325 0.0061,0.004 0.0548,0.0203 0.108458,0.0325 0.0537,0.0122 0.100056,0.0284 0.103019,0.0325 0.0029,0.004 0.04692,0.0203 0.09758,0.0325 0.05066,0.0122 0.09466,0.0284 0.09758,0.0325 0.0029,0.004 0.02963,0.0122 0.05963,0.0203 0.02963,0.008 0.07379,0.0244 0.09758,0.0325 0.02395,0.0122 0.07269,0.0284 0.108458,0.0366 0.03572,0.008 0.07485,0.0244 0.08678,0.0325 0.01177,0.008 0.05833,0.0244 0.103019,0.0365 0.04478,0.0122 0.09109,0.0325 0.10302,0.0406 0.01177,0.008 0.05098,0.0244 0.08678,0.0325 0.03572,0.0122 0.06771,0.0244 0.07095,0.0284 0.0029,0.004 0.03694,0.0162 0.07497,0.0284 0.03816,0.0122 0.07485,0.0284 0.08203,0.0325 0.0069,0.004 0.0412,0.0203 0.07574,0.0325 0.0345,0.0122 0.06807,0.0244 0.07477,0.0325 0.0069,0.004 0.04497,0.0203 0.0852,0.0325 0.04019,0.0122 0.07318,0.0284 0.07318,0.0325 0,0.004 0.0207,0.0122 0.04615,0.0203 0.02557,0.008 0.06316,0.0244 0.08402,0.0325 0.0207,0.0122 0.07213,0.0366 0.113898,0.0532 0.04173,0.0203 0.114952,0.0528 0.162687,0.0755 0.04769,0.0244 0.105089,0.0479 0.127414,0.0556 0.02232,0.008 0.04063,0.0163 0.04063,0.0203 0,0.004 0.02801,0.0162 0.06239,0.0325 0.0345,0.0122 0.06482,0.0284 0.06779,0.0325 0.0029,0.004 0.03206,0.0203 0.06503,0.0325 0.03288,0.0122 0.06206,0.0284 0.06503,0.0325 0.0029,0.004 0.03247,0.0203 0.06503,0.0325 0.03288,0.0122 0.06206,0.0284 0.06503,0.0325 0.0029,0.004 0.0272,0.0163 0.05423,0.0325 0.07359,0.0366 0.275651,0.14288 0.379604,0.20214 0.05066,0.0284 0.106834,0.0596 0.124735,0.0686 0.01786,0.008 0.03491,0.0203 0.03816,0.0244 0.0029,0.004 0.02963,0.0203 0.05963,0.0325 0.02963,0.0163 0.05812,0.0325 0.06287,0.0406 0.0049,0.008 0.01461,0.0122 0.02192,0.0122 0.0069,0 0.03856,0.0162 0.06953,0.0366 0.03085,0.0203 0.0608,0.0366 0.0662,0.0366 0.0049,0 0.03856,0.0203 0.07367,0.0435 0.03531,0.0244 0.06994,0.0435 0.07741,0.0435 0.0077,0 0.0134,0.004 0.0134,0.0122 0,0.004 0.01096,0.0163 0.02435,0.0203 0.0134,0.004 0.04891,0.0244 0.07891,0.0471 0.03004,0.0203 0.06495,0.041 0.07761,0.0451 0.01258,0.004 0.02598,0.0162 0.02923,0.0244 0.0029,0.008 0.01177,0.0163 0.01868,0.0163 0.0069,0 0.03572,0.0162 0.06413,0.0366 0.02842,0.0203 0.05667,0.0366 0.06267,0.0366 0.0061,0 0.02232,0.0122 0.03653,0.0284 0.01421,0.0162 0.02923,0.0284 0.03409,0.0284 0.01461,3.2e-4 0.164149,0.10026 0.173485,0.11568 0.0049,0.008 0.01421,0.0163 0.0207,0.0163 0.0069,0 0.03775,0.0203 0.06946,0.0435 0.03166,0.0244 0.06226,0.0435 0.0682,0.0435 0.0061,0 0.01461,0.008 0.01948,0.0163 0.0049,0.008 0.01907,0.0203 0.03206,0.0284 0.03126,0.0163 0.209691,0.14734 0.238186,0.17494 0.01258,0.0122 0.0272,0.0203 0.03288,0.0203 0.0061,0 0.04643,0.0284 0.091,0.0661 0.04457,0.0366 0.09445,0.073 0.110853,0.0816 0.01624,0.008 0.02963,0.0203 0.02963,0.0244 0,0.004 0.01096,0.0162 0.02435,0.0203 0.0134,0.004 0.0595,0.0406 0.10241,0.0755 0.04291,0.0366 0.08305,0.0661 0.08922,0.0661 0.0061,0 0.01908,0.0122 0.02923,0.0284 0.0097,0.0162 0.02435,0.0284 0.03206,0.0284 0.0077,0 0.02313,0.0122 0.03409,0.0244 0.01096,0.0122 0.0272,0.0284 0.03612,0.0325 0.01502,0.004 0.198854,0.16196 0.27898,0.23624 0.01908,0.0162 0.03897,0.0325 0.0434,0.0325 0.0049,0 0.02313,0.0163 0.04104,0.0325 0.01786,0.0162 0.113085,0.10514 0.211477,0.19403 0.09843,0.0885 0.195769,0.179 0.216308,0.20052 0.0207,0.0203 0.04132,0.0406 0.04623,0.0406 0.01177,0 0.691859,0.6803 0.691859,0.69187 0,0.004 0.01786,0.0244 0.03937,0.0463 0.02151,0.0203 0.111827,0.11813 0.200477,0.21635 0.08865,0.0982 0.17592,0.19362 0.193901,0.21148 0.01786,0.0162 0.03287,0.0366 0.03287,0.041 0,0.004 0.01461,0.0244 0.03247,0.0435 0.07436,0.0799 0.230068,0.26384 0.236279,0.27886 0.0039,0.008 0.01786,0.0244 0.03166,0.0366 0.0138,0.0122 0.02517,0.0244 0.02517,0.0325 0,0.008 0.01218,0.0203 0.0272,0.0325 0.01502,0.008 0.0272,0.0244 0.0272,0.0284 0,0.004 0.02963,0.0463 0.06612,0.0893 0.03612,0.0431 0.07042,0.0889 0.07566,0.10229 0.0049,0.0122 0.01461,0.0244 0.02029,0.0244 0.0061,0 0.01786,0.0122 0.02638,0.0284 0.0089,0.0162 0.04526,0.0661 0.08167,0.11081 0.03653,0.0447 0.06612,0.0856 0.06612,0.0909 0,0.004 0.01015,0.0203 0.02232,0.0325 0.03612,0.0366 0.183753,0.24193 0.183753,0.25491 0,0.008 0.0049,0.0122 0.01136,0.0122 0.0061,0 0.01421,0.008 0.01827,0.0203 0.0039,0.0122 0.02557,0.0439 0.04851,0.0742 0.02273,0.0284 0.0414,0.0605 0.0414,0.0673 0,0.008 0.0061,0.0163 0.0138,0.0203 0.01786,0.0122 0.1031,0.13719 0.116374,0.17211 0.0061,0.0162 0.01421,0.0284 0.01948,0.0284 0.0049,0 0.01624,0.0122 0.02435,0.0284 0.0077,0.0163 0.03004,0.052 0.04891,0.0787 0.01867,0.0284 0.03694,0.0573 0.04071,0.0677 0.0039,0.0122 0.01136,0.0203 0.01705,0.0203 0.0061,0 0.0138,0.0122 0.01827,0.0244 0.0039,0.0122 0.02476,0.0487 0.04525,0.0787 0.0207,0.0284 0.04189,0.0653 0.047,0.0787 0.0049,0.0122 0.01421,0.0244 0.02029,0.0244 0.0061,0 0.01096,0.004 0.01096,0.0122 0,0.008 0.01949,0.0422 0.0434,0.0775 0.02395,0.0366 0.0434,0.0682 0.0434,0.0734 0,0.004 0.01705,0.0366 0.03815,0.0661 0.0207,0.0325 0.03816,0.0622 0.03816,0.0694 0,0.008 0.0061,0.0162 0.0134,0.0203 0.0077,0.004 0.02557,0.0325 0.04059,0.0629 0.01461,0.0284 0.02963,0.0569 0.03328,0.0597 0.0039,0.003 0.0138,0.0203 0.02273,0.0365 0.0089,0.0163 0.03978,0.0738 0.06876,0.12461 0.04879,0.0856 0.145112,0.26587 0.202913,0.37953 0.0138,0.0284 0.0276,0.0512 0.03085,0.0543 0.0029,0.003 0.01746,0.0325 0.03126,0.0649 0.0138,0.0325 0.02841,0.0621 0.03247,0.0649 0.0039,0.003 0.01868,0.0325 0.03247,0.065 0.0138,0.0325 0.02882,0.0621 0.03288,0.0649 0.0039,0.003 0.01908,0.0325 0.03328,0.0677 0.01421,0.0325 0.02841,0.0625 0.03206,0.0625 0.0039,0 0.01299,0.0203 0.0207,0.0406 0.0077,0.0244 0.03287,0.0795 0.05557,0.12746 0.02273,0.0479 0.05686,0.12096 0.07554,0.16276 0.01867,0.0418 0.0427,0.093 0.05322,0.11406 0.01055,0.0203 0.02557,0.0589 0.03369,0.084 0.0077,0.0244 0.01786,0.0463 0.02192,0.0463 0.0039,0 0.01868,0.0325 0.03206,0.073 0.0134,0.0406 0.02882,0.0787 0.03409,0.0852 0.0049,0.008 0.01948,0.0406 0.03125,0.0747 0.01177,0.0325 0.02639,0.0686 0.03247,0.0759 0.0061,0.008 0.0207,0.0443 0.03288,0.082 0.01218,0.0366 0.02557,0.0718 0.03004,0.0751 0.0049,0.003 0.01705,0.0366 0.02801,0.071 0.01096,0.0366 0.02598,0.0747 0.03328,0.0869 0.0077,0.0122 0.02476,0.0585 0.03856,0.1031 0.0138,0.0447 0.03126,0.0909 0.03856,0.1031 0.0077,0.0122 0.02151,0.0512 0.03045,0.0869 0.0089,0.0366 0.02598,0.0844 0.03694,0.10838 0.01136,0.0244 0.02679,0.0678 0.03491,0.0974 0.0077,0.0284 0.01746,0.0568 0.02151,0.0596 0.0039,0.003 0.01867,0.0471 0.03247,0.0978 0.01421,0.0508 0.02882,0.0946 0.03328,0.0974 0.0039,0.003 0.01827,0.0491 0.03126,0.10309 0.01299,0.0536 0.02801,0.10229 0.03288,0.10839 0.0049,0.004 0.01989,0.0548 0.03328,0.10837 0.0134,0.0536 0.02801,0.10229 0.03288,0.10838 0.0049,0.004 0.01907,0.0572 0.03247,0.11406 0.0134,0.0568 0.0276,0.10553 0.03167,0.10837 0.0039,0.003 0.0138,0.0366 0.02151,0.0702 0.0077,0.0366 0.01908,0.0897 0.02517,0.11934 0.0061,0.0284 0.01502,0.0568 0.01907,0.0596 0.0039,0.003 0.01907,0.0617 0.03288,0.13029 0.0138,0.0686 0.02882,0.12705 0.03287,0.1303 0.0039,0.003 0.01827,0.0638 0.03167,0.13557 0.01299,0.0714 0.02842,0.14004 0.03369,0.15181 0.01136,0.0244 0.05362,0.25004 0.05362,0.28454 1.2e-5,0.0122 0.0039,0.0244 0.0089,0.0244 0.0049,0 0.02029,0.0743 0.03409,0.16561 0.0138,0.0909 0.02882,0.17049 0.03288,0.17616 0.0039,0.004 0.01908,0.0962 0.03247,0.20052 0.0134,0.10432 0.02801,0.19484 0.03247,0.20052 0.0039,0.004 0.01908,0.11812 0.03247,0.24964 0.0134,0.1311 0.02841,0.24841 0.03369,0.26018 0.0097,0.0244 0.03775,0.34299 0.04968,0.56396 0.0039,0.0718 0.01055,0.13274 0.01502,0.13558 0.01461,0.008 0.03206,0.619 0.03206,1.10626 0,0.48724 -0.01786,1.09623 -0.03206,1.10625 -0.0039,0.003 -0.01096,0.0641 -0.01502,0.13557 -0.01218,0.22082 -0.04019,0.54116 -0.04968,0.56397 -0.0049,0.0122 -0.01989,0.12908 -0.03369,0.26019 -0.0134,0.13111 -0.02801,0.24354 -0.03247,0.24963 -0.0039,0.004 -0.01907,0.0962 -0.03247,0.20052 -0.0134,0.10432 -0.02801,0.19483 -0.03247,0.20051 -0.0039,0.004 -0.01907,0.0853 -0.03288,0.17617 -0.0138,0.0909 -0.02923,0.1652 -0.03409,0.1652 -0.0049,0 -0.0089,0.0122 -0.0089,0.0244 0,0.0366 -0.04222,0.25897 -0.05362,0.28455 -0.0049,0.0122 -0.02029,0.0803 -0.03369,0.1518 -0.01299,0.0718 -0.0272,0.13273 -0.03167,0.13558 -0.0039,0.003 -0.01867,0.0617 -0.03287,0.13029 -0.0138,0.0686 -0.02882,0.12705 -0.03288,0.13029 -0.0039,0.003 -0.0134,0.0366 -0.0211,0.0707 -0.0077,0.0366 -0.01908,0.0893 -0.02517,0.11933 -0.0061,0.0284 -0.01502,0.0569 -0.01908,0.0597 -0.0039,0.003 -0.01867,0.0515 -0.03166,0.10837 -0.0134,0.0569 -0.02801,0.10797 -0.03247,0.11406 -0.0049,0.004 -0.01948,0.0548 -0.03287,0.10837 -0.0134,0.0536 -0.02842,0.1027 -0.03328,0.10879 -0.0049,0.004 -0.01989,0.0548 -0.03328,0.10838 -0.0134,0.0536 -0.0272,0.0999 -0.03126,0.10269 -0.0039,0.003 -0.01867,0.0471 -0.03287,0.0978 -0.01421,0.0508 -0.02882,0.0946 -0.03247,0.0974 -0.0039,0.003 -0.0134,0.0284 -0.02151,0.0597 -0.0077,0.0284 -0.02354,0.0738 -0.03491,0.0974 -0.01136,0.0244 -0.02801,0.0726 -0.03694,0.10837 -0.0089,0.0366 -0.02273,0.0747 -0.03045,0.0869 -0.0077,0.0122 -0.02517,0.0584 -0.03856,0.1031 -0.0138,0.0447 -0.03126,0.0909 -0.03856,0.1031 -0.0077,0.0122 -0.02232,0.0512 -0.03328,0.0869 -0.01096,0.0366 -0.02273,0.0674 -0.02638,0.0707 -0.0039,0.003 -0.01786,0.0366 -0.03085,0.0759 -0.0134,0.0406 -0.02882,0.0759 -0.03409,0.0824 -0.0061,0.008 -0.01948,0.0406 -0.03166,0.0747 -0.01177,0.0366 -0.02598,0.0682 -0.03126,0.0746 -0.0049,0.008 -0.0207,0.0451 -0.03409,0.0853 -0.0134,0.0406 -0.02801,0.073 -0.03206,0.073 -0.0039,0 -0.01421,0.0203 -0.02192,0.0463 -0.0077,0.0244 -0.02314,0.0634 -0.03369,0.084 -0.01055,0.0203 -0.0345,0.0723 -0.05322,0.11365 -0.01867,0.0418 -0.05273,0.11488 -0.07554,0.16277 -0.02273,0.0479 -0.04781,0.10513 -0.05557,0.12746 -0.0077,0.0244 -0.01705,0.0406 -0.0207,0.0406 -0.0039,0 -0.01827,0.0284 -0.03207,0.0625 -0.01421,0.0325 -0.02923,0.0649 -0.03328,0.0678 -0.0039,0.003 -0.01908,0.0325 -0.03287,0.0649 -0.0138,0.0325 -0.02842,0.0621 -0.03247,0.0649 -0.0039,0.003 -0.01868,0.0325 -0.03247,0.0649 -0.0138,0.0325 -0.02841,0.0621 -0.03247,0.0649 -0.0039,0.003 -0.01786,0.0284 -0.03045,0.0544 -0.03531,0.0734 -0.14292,0.27561 -0.201979,0.37952 -0.02882,0.0508 -0.05971,0.10675 -0.06876,0.12462 -0.0089,0.0162 -0.01948,0.0366 -0.02273,0.0366 -0.0039,0.003 -0.01868,0.0284 -0.03328,0.0597 -0.01461,0.0284 -0.03287,0.0581 -0.04059,0.0629 -0.0077,0.004 -0.01339,0.0162 -0.01339,0.0203 0,0.008 -0.01705,0.0406 -0.03816,0.0694 -0.0207,0.0325 -0.03816,0.0609 -0.03816,0.0662 0,0.004 -0.01948,0.0406 -0.0434,0.0734 -0.02395,0.0366 -0.0434,0.0698 -0.0434,0.0775 0,0.008 -0.0049,0.0122 -0.01096,0.0122 -0.0061,0 -0.01543,0.0122 -0.02029,0.0244 -0.0049,0.0122 -0.02638,0.0491 -0.04704,0.0787 -0.0207,0.0284 -0.04112,0.0653 -0.04526,0.0787 -0.0039,0.0122 -0.01258,0.0244 -0.01826,0.0244 -0.0061,0 -0.0134,0.008 -0.01705,0.0203 -0.0039,0.0122 -0.02314,0.0418 -0.04299,0.0694 -0.01989,0.0284 -0.03612,0.0552 -0.03612,0.0613 0,0.004 -0.01218,0.0244 -0.02679,0.0366 -0.01461,0.0122 -0.02679,0.0284 -0.0272,0.0325 -3.25e-4,0.0163 -0.1003,0.16399 -0.115846,0.17332 -0.0077,0.004 -0.01461,0.0122 -0.01461,0.0203 0,0.008 -0.01867,0.0366 -0.0414,0.0673 -0.02273,0.0284 -0.04456,0.0638 -0.0485,0.0743 -0.0039,0.0122 -0.01218,0.0203 -0.01827,0.0203 -0.0061,0 -0.01136,0.004 -0.01136,0.0122 0,0.0122 -0.147791,0.21757 -0.183997,0.25491 -0.01218,0.0122 -0.02192,0.0284 -0.02192,0.0325 0,0.004 -0.02963,0.0463 -0.06612,0.0909 -0.03653,0.0447 -0.0731,0.0946 -0.08167,0.11081 -0.0089,0.0162 -0.02029,0.0284 -0.02639,0.0284 -0.0061,0 -0.01502,0.0122 -0.02029,0.0244 -0.0049,0.0122 -0.03937,0.0597 -0.07566,0.10229 -0.03653,0.0431 -0.06612,0.0832 -0.06612,0.0893 0,0.004 -0.01218,0.0203 -0.0272,0.0284 -0.01502,0.008 -0.0272,0.0244 -0.0272,0.0325 0,0.008 -0.01136,0.0244 -0.02517,0.0325 -0.0138,0.0122 -0.02801,0.0284 -0.03167,0.0366 -0.0061,0.0162 -0.161834,0.19889 -0.236237,0.27885 -0.01786,0.0203 -0.03247,0.0406 -0.03247,0.0435 0,0.004 -0.01461,0.0244 -0.03288,0.041 -0.01786,0.0163 -0.105251,0.11325 -0.193902,0.21148 -0.08865,0.0986 -0.178882,0.19564 -0.200477,0.21634 -0.02151,0.0203 -0.03937,0.0414 -0.03937,0.0463 0,0.0122 -0.680298,0.69186 -0.691859,0.69186 -0.0049,0 -0.02557,0.0162 -0.04623,0.0406 -0.0207,0.0203 -0.117916,0.11162 -0.216348,0.20052 -0.09843,0.0885 -0.193576,0.17575 -0.211477,0.19402 -0.01786,0.0162 -0.03612,0.0325 -0.04104,0.0325 -0.0049,0 -0.02435,0.0162 -0.0434,0.0325 -0.08009,0.0743 -0.26388,0.23014 -0.27898,0.23624 -0.0089,0.004 -0.02517,0.0162 -0.03612,0.0325 -0.01096,0.0122 -0.02598,0.0244 -0.03409,0.0244 -0.0077,0 -0.02232,0.0122 -0.03206,0.0284 -0.0097,0.0163 -0.02273,0.0284 -0.02882,0.0284 -0.0061,0 -0.04631,0.0284 -0.08922,0.0661 -0.04291,0.0366 -0.08901,0.0702 -0.10241,0.0755 -0.0134,0.004 -0.02435,0.0163 -0.02435,0.0203 0,0.004 -0.0134,0.0163 -0.02963,0.0244 -0.01624,0.008 -0.06633,0.0455 -0.110853,0.0816 -0.04457,0.0366 -0.08561,0.0661 -0.091,0.0661 -0.0061,0 -0.02029,0.008 -0.03287,0.0203 -0.03572,0.0325 -0.242042,0.18388 -0.253936,0.18388 -0.0061,0 -0.01339,0.008 -0.01664,0.0162 -0.0039,0.008 -0.01136,0.0162 -0.01786,0.0162 -0.0069,0 -0.03734,0.0203 -0.06905,0.0435 -0.03166,0.0244 -0.06287,0.0435 -0.06945,0.0435 -0.0069,0 -0.01583,0.008 -0.0207,0.0162 -0.0089,0.0162 -0.159034,0.11568 -0.173484,0.11568 -0.0049,1.6e-4 -0.02029,0.0122 -0.03409,0.0284 -0.01421,0.0162 -0.03045,0.0284 -0.03653,0.0284 -0.0061,0 -0.03409,0.0162 -0.06267,0.0366 -0.02842,0.0203 -0.05727,0.0366 -0.06413,0.0366 -0.0069,0 -0.01502,0.008 -0.01867,0.0162 -0.0029,0.008 -0.01664,0.0203 -0.02923,0.0244 -0.01258,0.004 -0.04769,0.0244 -0.07761,0.0451 -0.03004,0.0203 -0.06543,0.0418 -0.07891,0.0471 -0.0134,0.004 -0.02435,0.0163 -0.02435,0.0203 0,0.004 -0.0061,0.0122 -0.0134,0.0122 -0.0077,0 -0.0423,0.0203 -0.07745,0.0435 -0.03531,0.0244 -0.06828,0.0435 -0.07367,0.0435 -0.0049,0 -0.03531,0.0162 -0.0662,0.0366 -0.03085,0.0203 -0.06227,0.0366 -0.06957,0.0366 -0.0069,0 -0.01705,0.004 -0.02192,0.0122 -0.0049,0.008 -0.03287,0.0244 -0.06287,0.0406 -0.02963,0.0162 -0.05667,0.0284 -0.05963,0.0325 -0.0029,0.004 -0.01989,0.0122 -0.03815,0.0244 -0.01786,0.008 -0.074,0.0406 -0.124735,0.0686 -0.103912,0.0592 -0.306013,0.16643 -0.379604,0.20214 -0.02679,0.0122 -0.05127,0.0284 -0.05423,0.0325 -0.0029,0.004 -0.03206,0.0203 -0.06503,0.0325 -0.03288,0.0122 -0.06206,0.0284 -0.06503,0.0325 -0.0029,0.004 -0.03206,0.0203 -0.06503,0.0325 -0.03288,0.0122 -0.06206,0.0284 -0.06503,0.0325 -0.0029,0.004 -0.03328,0.0203 -0.06779,0.0325 -0.0345,0.0122 -0.06239,0.0284 -0.06239,0.0325 0,0.004 -0.01827,0.0122 -0.04063,0.0203 -0.02232,0.008 -0.07968,0.0325 -0.127414,0.0556 -0.04769,0.0244 -0.120919,0.0569 -0.162687,0.0755 -0.04173,0.0203 -0.09295,0.0426 -0.113898,0.0532 -0.0207,0.0122 -0.05873,0.0244 -0.08402,0.0325 -0.02557,0.008 -0.04615,0.0162 -0.04615,0.0203 0,0.004 -0.03288,0.0203 -0.07318,0.0325 -0.04019,0.0122 -0.07863,0.0284 -0.0852,0.0325 -0.0069,0.004 -0.04019,0.0203 -0.07477,0.0325 -0.0345,0.0122 -0.06807,0.0244 -0.07477,0.0325 -0.0069,0.004 -0.04368,0.0203 -0.08244,0.0325 -0.03856,0.0122 -0.0729,0.0284 -0.07595,0.0325 -0.0029,0.004 -0.03491,0.0162 -0.07063,0.0284 -0.03572,0.0122 -0.07485,0.0244 -0.08678,0.0325 -0.01177,0.008 -0.05833,0.0244 -0.103019,0.0406 -0.04478,0.0122 -0.09109,0.0325 -0.103019,0.0366 -0.01177,0.008 -0.05098,0.0203 -0.08678,0.0325 -0.03572,0.008 -0.08459,0.0284 -0.108459,0.0365 -0.02395,0.0122 -0.06779,0.0244 -0.09758,0.0325 -0.02963,0.008 -0.05667,0.0162 -0.05962,0.0203 -0.0029,0.004 -0.04692,0.0203 -0.09758,0.0325 -0.05066,0.0122 -0.09466,0.0284 -0.09758,0.0325 -0.0029,0.004 -0.0494,0.0163 -0.103019,0.0325 -0.0537,0.0122 -0.102491,0.0284 -0.108458,0.0325 -0.0061,0.004 -0.0548,0.0203 -0.108458,0.0325 -0.0537,0.0122 -0.102492,0.0284 -0.108458,0.0325 -0.0061,0.004 -0.05727,0.0203 -0.113857,0.0325 -0.05667,0.0122 -0.105454,0.0284 -0.108458,0.0325 -0.0029,0.004 -0.03491,0.0122 -0.07054,0.0203 -0.03572,0.008 -0.08954,0.0203 -0.119296,0.0244 -0.02963,0.004 -0.05667,0.0162 -0.05962,0.0203 -0.0029,0.004 -0.06158,0.0203 -0.130175,0.0325 -0.06856,0.0122 -0.12717,0.0284 -0.130133,0.0325 -0.0029,0.004 -0.06393,0.0162 -0.135573,0.0325 -0.07164,0.0122 -0.137886,0.0284 -0.147384,0.0325 -0.0097,0.004 -0.08272,0.0203 -0.162687,0.0325 -0.07997,0.0122 -0.147872,0.0284 -0.150876,0.0325 -0.0029,0.004 -0.07615,0.0162 -0.162688,0.0325 -0.08646,0.0122 -0.16703,0.0284 -0.178964,0.0325 -0.01177,0.004 -0.104683,0.0203 -0.206078,0.0325 -0.101395,0.0122 -0.189233,0.0284 -0.195201,0.0325 -0.0061,0.004 -0.11824,0.0203 -0.249429,0.0325 -0.13123,0.0122 -0.248374,0.0284 -0.260307,0.0325 -0.02273,0.008 -0.34295,0.0366 -0.563967,0.0496 -0.07164,0.004 -0.132569,0.0122 -0.135573,0.0162 -0.01908,0.0284 -1.402734,0.041 -1.957474,0.0203 z m 1.529086,-0.59397 c 0.214074,-0.0122 0.761658,-0.0487 0.845949,-0.0596 0.02395,-0.003 0.165407,-0.0203 0.314496,-0.0366 0.317825,-0.0366 0.470486,-0.0617 0.824258,-0.12542 0.444654,-0.0799 0.554699,-0.10391 1.046592,-0.22853 0.421104,-0.10675 0.455448,-0.11609 0.455488,-0.12542 0,-0.004 -0.03288,-0.0163 -0.07318,-0.0284 -0.09689,-0.0284 -0.439742,-0.12665 -0.555828,-0.15912 -0.05066,-0.0162 -0.143447,-0.0406 -0.206078,-0.0589 -0.267654,-0.0771 -0.329231,-0.0913 -0.333655,-0.0779 -0.0029,0.008 -0.633275,0.0122 -2.820574,0.0122 h -2.816235 l -0.157248,0.0552 c -0.08646,0.0284 -0.191426,0.0665 -0.233194,0.0799 -0.04173,0.0122 -0.168653,0.0573 -0.281982,0.097 -0.113329,0.0406 -0.273175,0.095 -0.355168,0.12259 -0.08512,0.0284 -0.143245,0.054 -0.135411,0.0585 0.02232,0.0122 0.628218,0.15709 0.745447,0.17779 0.0207,0.004 0.09405,0.0203 0.162688,0.0325 0.217403,0.0447 0.658412,0.11812 0.873072,0.14573 0.04773,0.004 0.16975,0.0203 0.271145,0.0325 0.101395,0.0122 0.203887,0.0244 0.227754,0.0284 0.02395,0.003 0.209326,0.0163 0.412129,0.0325 0.547007,0.0414 1.255679,0.052 1.789523,0.0244 z m 2.223725,-1.09273 c 0.02395,-0.0284 0.04242,-0.0516 0.287097,-0.37668 0.121123,-0.16074 0.242692,-0.32188 0.270212,-0.35802 0.0276,-0.0366 0.05727,-0.0759 0.06612,-0.0893 0.0089,-0.0122 0.05293,-0.0718 0.0979,-0.13029 0.101719,-0.13233 0.635892,-0.83856 0.669505,-0.88536 0.02639,-0.0366 0.03978,-0.0544 0.165123,-0.2196 0.04477,-0.0589 0.08865,-0.11771 0.09758,-0.1307 0.0089,-0.0122 0.03816,-0.0516 0.06503,-0.0856 0.02679,-0.0325 0.05853,-0.0759 0.07054,-0.093 0.01177,-0.0162 0.11889,-0.15911 0.237699,-0.31579 0.5256,-0.69426 0.77246,-1.02122 0.792617,-1.04984 0.01177,-0.0163 0.146167,-0.19524 0.29826,-0.39575 0.152134,-0.20093 0.283891,-0.37588 0.292821,-0.38927 0.03531,-0.0528 0.06365,-0.0828 0.08569,-0.0909 0.02517,-0.008 0.0608,0.0471 -0.586308,-0.92982 -0.134354,-0.20294 -0.344289,-0.52004 -0.466544,-0.70497 -0.122219,-0.18469 -0.353139,-0.53389 -0.513135,-0.77544 -0.160008,-0.24152 -0.403999,-0.61008 -0.542274,-0.81884 -0.138252,-0.20864 -0.386424,-0.58337 -0.551453,-0.83239 l -0.300086,-0.45283 h -3.16777 c -2.52945,0 -3.166844,0.003 -3.163167,0.0122 0.0039,0.0122 -0.06937,0.13922 -0.181075,0.31173 -0.03572,0.0557 -0.414893,0.6583 -0.531814,0.84595 -0.01299,0.0203 -0.03612,0.0577 -0.05127,0.0812 -0.07607,0.11975 -0.123476,0.19484 -0.372094,0.59109 -0.276666,0.44081 -0.300208,0.47816 -0.391172,0.62046 -0.02923,0.0459 -0.07298,0.11569 -0.09681,0.15466 -0.02395,0.0406 -0.07054,0.11365 -0.10379,0.16601 -0.03328,0.052 -0.164474,0.26059 -0.291685,0.46342 -0.278004,0.44329 -0.275772,0.43972 -0.308204,0.49074 -0.01421,0.0244 -0.04899,0.0771 -0.0772,0.12219 -0.02842,0.0447 -0.06385,0.10107 -0.07911,0.12461 -0.03491,0.0548 -0.04546,0.0714 -0.213751,0.34177 -0.07615,0.12218 -0.153311,0.24395 -0.171414,0.26993 -0.01826,0.0244 -0.03288,0.0532 -0.03288,0.06 0,0.008 0.07745,0.11446 0.171943,0.23989 0.09454,0.12502 0.267451,0.35354 0.384108,0.50783 0.116699,0.15425 0.221909,0.29428 0.233843,0.31134 0.0272,0.0406 0.605402,0.8056 0.612801,0.81294 0.0089,0.008 0.393202,0.51794 0.41752,0.55297 0.01177,0.0162 0.08755,0.1173 0.168125,0.22244 0.08049,0.10512 0.153677,0.20173 0.162526,0.21512 0.0089,0.0122 0.04595,0.0629 0.08244,0.11041 0.03653,0.0479 0.182252,0.2403 0.323994,0.4284 0.141743,0.18793 0.336497,0.44576 0.43277,0.57301 0.09632,0.12745 0.184809,0.24517 0.196743,0.26182 0.05313,0.0742 0.15124,0.20335 0.171414,0.22527 l 0.02232,0.0244 h 2.649846 c 2.510088,0 2.650722,-8.1e-4 2.666512,-0.0203 z m -13.800368,-3.79888 c -0.03166,-0.20376 -0.05508,-0.35963 -0.131149,-0.86742 -0.01746,-0.1165 -0.04651,-0.31011 -0.06462,-0.43112 -0.01827,-0.12095 -0.04781,-0.31822 -0.06592,-0.43923 -0.01827,-0.12095 -0.04485,-0.29752 -0.05942,-0.39332 -0.01461,-0.0954 -0.03653,-0.24435 -0.04891,-0.33081 -0.01705,-0.11934 -0.0272,-0.16115 -0.04189,-0.17373 -0.01055,-0.008 -0.04525,-0.082 -0.07655,-0.16277 -0.03125,-0.0807 -0.07164,-0.18306 -0.08954,-0.22771 -0.01786,-0.0447 -0.04153,-0.10554 -0.05244,-0.13558 -0.01867,-0.0508 -0.03978,-0.10472 -0.11755,-0.30077 -0.01705,-0.0435 -0.06157,-0.15668 -0.09876,-0.25207 -0.03734,-0.0954 -0.08203,-0.21026 -0.09973,-0.25491 -0.01786,-0.0447 -0.04623,-0.11811 -0.06344,-0.16277 -0.03369,-0.0881 -0.08057,-0.20782 -0.131594,-0.33608 -0.01786,-0.0447 -0.04623,-0.11813 -0.06324,-0.16277 -0.01705,-0.0447 -0.04651,-0.12056 -0.06543,-0.16805 -0.01908,-0.0479 -0.04631,-0.11853 -0.06088,-0.15709 -0.01461,-0.0406 -0.04781,-0.12421 -0.074,-0.18996 -0.02598,-0.0657 -0.07023,-0.17778 -0.09799,-0.24964 -0.0276,-0.0714 -0.0716,-0.18387 -0.09758,-0.24922 -0.02598,-0.0658 -0.06985,-0.17779 -0.09758,-0.24963 -0.0276,-0.0714 -0.07152,-0.18388 -0.09738,-0.24963 -0.02598,-0.0658 -0.06405,-0.16318 -0.08491,-0.21676 -0.0207,-0.0536 -0.06482,-0.16601 -0.0977,-0.24963 -0.0604,-0.15343 -0.140038,-0.3576 -0.186067,-0.47719 -0.0138,-0.0366 -0.05777,-0.14815 -0.09778,-0.24963 -0.03978,-0.10148 -0.08479,-0.21594 -0.09953,-0.25491 -0.06503,-0.17048 -0.09405,-0.23461 -0.115845,-0.25612 -0.02679,-0.0244 -0.246872,-0.25694 -0.706736,-0.74179 -0.178274,-0.18794 -0.334142,-0.35152 -0.346401,-0.3637 -0.01218,-0.0122 -0.09295,-0.0974 -0.179492,-0.18956 -0.218783,-0.23299 -0.393079,-0.41179 -0.401035,-0.41179 -0.0039,0 -0.0049,0.0325 -0.0029,0.073 0.01055,0.21797 0.0537,0.80804 0.06759,0.92458 0.0049,0.0447 0.01989,0.16926 0.03247,0.27642 0.09287,0.78985 0.276585,1.66401 0.525012,2.49774 0.121569,0.40806 0.383053,1.13764 0.501327,1.39884 0.01421,0.0325 0.02598,0.0605 0.02598,0.0642 0,0.004 0.01421,0.0406 0.03166,0.0783 0.141945,0.31864 0.181603,0.40704 0.214806,0.47808 0.06454,0.138 0.23778,0.48639 0.31267,0.62903 0.06344,0.12055 0.08914,0.16805 0.156516,0.28738 0.01015,0.0162 0.04436,0.0787 0.07603,0.13557 0.137724,0.24598 0.336862,0.56997 0.529699,0.86219 0.104156,0.1579 0.377697,0.55162 0.410608,0.59112 0.0077,0.008 0.05147,0.0677 0.09778,0.1307 0.150551,0.20417 0.294282,0.3848 0.560877,0.70368 0.234939,0.28129 0.594081,0.67137 0.600437,0.65233 0.002,-0.008 -0.01096,-0.10959 -0.02963,-0.22853 z m 22.516248,-0.59952 c 0.182698,-0.22609 0.285515,-0.3572 0.39588,-0.50479 0.05638,-0.0755 0.108418,-0.1445 0.115602,-0.15343 0.0069,-0.008 0.07664,-0.10634 0.154326,-0.21676 0.33812,-0.48018 0.600258,-0.89989 0.907769,-1.4533 0.0794,-0.14288 0.343559,-0.66407 0.420503,-0.82968 0.08776,-0.18874 0.09591,-0.2066 0.124572,-0.27114 0.0546,-0.12299 0.124532,-0.28738 0.124532,-0.29225 0,-0.003 0.01177,-0.0325 0.02598,-0.0625 0.03206,-0.0706 0.129768,-0.31458 0.164147,-0.40973 0.0138,-0.0406 0.04554,-0.1242 0.07014,-0.18995 0.0908,-0.24233 0.244803,-0.71518 0.326836,-1.00321 0.08804,-0.30929 0.24671,-0.95351 0.264326,-1.0737 0.0039,-0.0284 0.0138,-0.0755 0.02192,-0.10837 0.06157,-0.2468 0.190289,-1.12969 0.226577,-1.55418 0.0211,-0.24801 0.03206,-0.4264 0.02517,-0.41975 -0.0029,0.003 -0.02638,0.0284 -0.05175,0.0597 -0.02557,0.0284 -0.08402,0.0958 -0.130174,0.14652 -0.04615,0.0508 -0.163296,0.18023 -0.260389,0.28738 -0.09709,0.10717 -0.214116,0.23665 -0.260064,0.28738 -0.333696,0.36816 -0.399452,0.44378 -0.406662,0.46712 -0.0049,0.0162 -0.03004,0.0799 -0.05667,0.14573 -0.02679,0.0658 -0.0792,0.19483 -0.116617,0.28738 -0.03734,0.0925 -0.07339,0.18022 -0.07989,0.19524 -0.01055,0.0244 -0.07111,0.17616 -0.153554,0.3852 -0.06543,0.16561 -0.143853,0.35964 -0.157898,0.39048 -0.01502,0.0325 -0.242448,0.59636 -0.297651,0.7375 -0.0276,0.0702 -0.127819,0.31904 -0.387438,0.95984 -0.100989,0.24923 -0.130579,0.32311 -0.195727,0.48807 -0.01786,0.0447 -0.06503,0.16195 -0.10513,0.26018 -0.198367,0.48628 -0.365275,0.90116 -0.413635,1.02829 -0.01421,0.0366 -0.03409,0.084 -0.04428,0.10309 -0.01015,0.0203 -0.02679,0.0905 -0.03734,0.15953 -0.04072,0.26708 -0.08528,0.56392 -0.101762,0.67786 -0.0097,0.0658 -0.03126,0.20944 -0.0485,0.31985 -0.01705,0.11041 -0.0345,0.22488 -0.03816,0.25491 -0.0039,0.0284 -0.01867,0.12989 -0.03288,0.22244 -0.03531,0.22771 -0.08796,0.58146 -0.1031,0.6941 -0.0069,0.0508 -0.01461,0.10066 -0.01746,0.11122 -0.01096,0.0406 0.01624,0.0122 0.128307,-0.12543 z M 70.46908,161.6169 c 0.0061,-0.0122 0.02557,-0.0435 0.04279,-0.0706 0.0425,-0.0658 0.06259,-0.0978 0.179857,-0.28738 0.05541,-0.0897 0.111624,-0.17982 0.124938,-0.20052 0.02963,-0.0463 0.195362,-0.31255 0.368319,-0.59113 0.122381,-0.19726 0.318069,-0.51091 0.368685,-0.59107 0.01299,-0.0203 0.08638,-0.13801 0.162647,-0.26019 0.07623,-0.12217 0.149454,-0.23948 0.162606,-0.26018 0.01299,-0.0203 0.04019,-0.0649 0.05991,-0.0974 0.01989,-0.0325 0.05313,-0.0865 0.07416,-0.11934 0.0211,-0.0325 0.05037,-0.0791 0.06523,-0.1031 0.01502,-0.0244 0.03775,-0.0604 0.05066,-0.0812 0.01299,-0.0203 0.05687,-0.0917 0.09738,-0.15708 0.04059,-0.0658 0.08451,-0.13638 0.09778,-0.15709 0.06592,-0.10432 0.107606,-0.17088 0.200193,-0.31985 0.05557,-0.0897 0.111908,-0.17982 0.125303,-0.20053 0.0134,-0.0203 0.08646,-0.138 0.162403,-0.26018 0.15465,-0.24922 0.169426,-0.27236 0.225725,-0.36044 0.02192,-0.0325 0.03978,-0.0646 0.03978,-0.0674 0,-0.003 0.01421,-0.0244 0.03126,-0.0516 0.07083,-0.10513 0.121487,-0.18874 0.126845,-0.20944 0.0049,-0.0203 -0.143488,-0.47954 -0.2213,-0.68298 -0.01827,-0.0479 -0.04976,-0.13071 -0.07006,-0.18428 -0.02029,-0.0536 -0.08216,-0.21716 -0.137439,-0.36329 -0.05529,-0.14612 -0.111624,-0.29509 -0.125101,-0.33081 -0.0134,-0.0366 -0.03937,-0.10391 -0.05776,-0.15181 -0.06612,-0.17251 -0.112233,-0.29428 -0.13744,-0.36329 -0.01421,-0.0406 -0.05569,-0.14856 -0.09226,-0.24395 -0.03653,-0.0954 -0.0781,-0.20539 -0.0921,-0.24395 -0.0138,-0.0406 -0.04822,-0.12908 -0.07607,-0.20051 -0.02801,-0.0714 -0.05707,-0.14978 -0.06495,-0.17332 -0.0077,-0.0244 -0.0345,-0.097 -0.0593,-0.16277 -0.02476,-0.0657 -0.06876,-0.1851 -0.09791,-0.26587 -0.02923,-0.0807 -0.07566,-0.20742 -0.103425,-0.28211 -0.0276,-0.0746 -0.05452,-0.14775 -0.05942,-0.16277 -0.0049,-0.0162 -0.03166,-0.0881 -0.0593,-0.16276 -0.0276,-0.0747 -0.07672,-0.20864 -0.109026,-0.29834 -0.03206,-0.0893 -0.07635,-0.20905 -0.09786,-0.26587 -0.02151,-0.0569 -0.0481,-0.12989 -0.05914,-0.16277 -0.01096,-0.0325 -0.04019,-0.11325 -0.06482,-0.17901 -0.02476,-0.0658 -0.06876,-0.1851 -0.0979,-0.26587 -0.02923,-0.0803 -0.07566,-0.20742 -0.103425,-0.2821 -0.0276,-0.0747 -0.0546,-0.14775 -0.05962,-0.16277 -0.0049,-0.0163 -0.03166,-0.0881 -0.05922,-0.16277 -0.0276,-0.0747 -0.07485,-0.20498 -0.105048,-0.28982 l -0.055,-0.15384 -0.08284,-0.0244 c -0.04554,-0.0162 -0.141377,-0.0443 -0.212938,-0.0666 -0.0716,-0.0203 -0.174053,-0.0539 -0.227755,-0.0706 -0.0537,-0.0163 -0.148846,-0.0463 -0.211477,-0.0658 -0.06267,-0.0203 -0.157816,-0.0483 -0.211477,-0.0653 -0.215495,-0.0673 -0.30853,-0.0962 -0.412128,-0.12785 -0.05963,-0.0203 -0.196297,-0.0605 -0.303659,-0.0938 -0.107363,-0.0325 -0.251337,-0.0775 -0.319936,-0.0986 -0.06856,-0.0203 -0.168653,-0.052 -0.222315,-0.069 -0.0537,-0.0162 -0.14641,-0.0455 -0.206078,-0.0638 -0.05962,-0.0203 -0.196297,-0.0605 -0.303658,-0.0938 -0.107363,-0.0325 -0.251338,-0.0779 -0.319936,-0.099 -0.06856,-0.0203 -0.168654,-0.0524 -0.222314,-0.069 -0.0537,-0.0162 -0.148846,-0.0463 -0.211478,-0.0654 -0.06267,-0.0203 -0.157817,-0.0483 -0.211477,-0.0653 -0.2144,-0.0669 -0.308407,-0.0962 -0.412129,-0.12826 -0.05963,-0.0203 -0.169466,-0.0524 -0.243991,-0.0755 -0.07456,-0.0244 -0.140443,-0.0406 -0.14641,-0.0366 -0.0061,0.002 -0.03937,0.0491 -0.07428,0.10431 -0.03491,0.0552 -0.09198,0.1441 -0.126967,0.19768 -0.03491,0.0535 -0.09336,0.14409 -0.12985,0.20052 -0.03653,0.0569 -0.112151,0.17372 -0.168208,0.26018 -0.05609,0.0865 -0.131513,0.20377 -0.167639,0.26018 -0.03612,0.0569 -0.138657,0.21513 -0.227875,0.35233 -0.08922,0.1372 -0.191751,0.29591 -0.227876,0.35233 -0.03612,0.0569 -0.09454,0.14694 -0.12989,0.20052 -0.03531,0.0535 -0.09247,0.14531 -0.12709,0.20376 -0.0345,0.0585 -0.07753,0.1303 -0.09543,0.15952 -0.01786,0.0284 -0.06178,0.1027 -0.09758,0.16277 -0.03572,0.06 -0.07968,0.13354 -0.09758,0.16358 -0.01786,0.0284 -0.10034,0.16764 -0.183226,0.30606 -0.08293,0.13841 -0.161591,0.26911 -0.174864,0.28982 -0.03125,0.0491 -0.14361,0.23461 -0.167639,0.27642 -0.01015,0.0162 -0.09799,0.16439 -0.195079,0.32553 -0.09709,0.16115 -0.185094,0.30728 -0.195565,0.32554 -0.02192,0.0365 -0.115481,0.19321 -0.22808,0.37952 -0.04318,0.0714 -0.08715,0.14491 -0.09758,0.16277 -0.01055,0.0162 -0.07318,0.12217 -0.139511,0.23137 -0.06633,0.10918 -0.120594,0.20822 -0.120594,0.21999 0,0.0203 0.05127,0.16197 0.09738,0.26994 0.01136,0.0284 0.03856,0.095 0.06019,0.1518 0.07773,0.20377 0.115399,0.29916 0.141377,0.35923 0.01461,0.0325 0.02639,0.0645 0.02639,0.069 0,0.004 0.02638,0.0743 0.05873,0.15588 0.03247,0.0811 0.08147,0.2066 0.109269,0.27804 0.02801,0.0714 0.0718,0.18387 0.09778,0.24963 0.02598,0.0658 0.06985,0.17779 0.09758,0.24963 0.0276,0.0718 0.07152,0.18388 0.09738,0.24963 0.02598,0.0658 0.06405,0.16318 0.08491,0.21676 0.0207,0.0536 0.06483,0.16602 0.0977,0.24922 0.0604,0.15344 0.140038,0.35761 0.186067,0.47723 0.0138,0.0366 0.05776,0.14816 0.09778,0.24964 0.03978,0.10147 0.08479,0.21593 0.09973,0.2549 0.01502,0.0406 0.04327,0.11203 0.06316,0.16277 0.05707,0.14572 0.12851,0.32837 0.195038,0.4989 0.03369,0.0865 0.07858,0.20133 0.09965,0.25491 0.04505,0.11528 0.09454,0.24273 0.149373,0.3852 0.08001,0.20783 0.05881,0.18591 0.23912,0.25004 0.150266,0.0536 0.336293,0.12178 0.531432,0.19484 0.06564,0.0244 0.13882,0.0512 0.162687,0.0592 0.02395,0.008 0.09709,0.0366 0.162687,0.0597 0.06564,0.0244 0.158345,0.0589 0.206079,0.0763 0.04769,0.0162 0.128226,0.0467 0.178964,0.0653 0.05066,0.0203 0.123924,0.0455 0.162688,0.0597 0.03856,0.0122 0.124167,0.0459 0.189802,0.0703 0.06564,0.0244 0.13882,0.0512 0.162687,0.0592 0.04019,0.0122 0.109148,0.0406 0.422982,0.15506 0.06564,0.0244 0.168087,0.0621 0.227755,0.0836 0.05962,0.0203 0.137723,0.0508 0.173525,0.0645 0.273174,0.10473 0.423681,0.16277 0.49348,0.19037 0.04477,0.0163 0.127698,0.0496 0.184362,0.071 0.05667,0.0203 0.127455,0.0483 0.157249,0.0597 0.02963,0.0122 0.100584,0.0366 0.157248,0.06 0.05667,0.0203 0.130499,0.0512 0.164067,0.0654 0.03369,0.0162 0.06462,0.0244 0.06896,0.0244 0.0039,0 0.05017,0.0162 0.10168,0.0366 0.104683,0.0414 0.27155,0.10594 0.35399,0.1372 0.02963,0.0122 0.137196,0.0528 0.238592,0.0917 0.101395,0.0406 0.21854,0.084 0.260307,0.0999 0.04173,0.0162 0.114953,0.0447 0.162688,0.0641 0.0962,0.0406 0.113572,0.041 0.130052,0.008 z m 12.667114,-0.14247 c 0.05403,-0.0203 0.139672,-0.0544 0.19037,-0.0739 0.05066,-0.0203 0.126359,-0.0491 0.168086,-0.0653 0.04173,-0.0163 0.117389,-0.0455 0.168126,-0.0649 0.05066,-0.0203 0.126359,-0.0491 0.168127,-0.0649 0.04173,-0.0163 0.117388,-0.0455 0.168086,-0.065 0.05066,-0.0203 0.126358,-0.0487 0.168126,-0.0649 0.04173,-0.0162 0.105211,-0.0406 0.140972,-0.0548 0.06385,-0.0244 0.158425,-0.0617 0.363326,-0.14084 0.05667,-0.0203 0.120108,-0.0463 0.140972,-0.0548 0.05025,-0.0203 0.208391,-0.0812 0.336211,-0.12989 0.153758,-0.0589 0.258725,-0.10107 0.325375,-0.13029 0.03288,-0.0163 0.164595,-0.0706 0.292821,-0.12502 0.128225,-0.054 0.2653,-0.11285 0.30451,-0.13071 0.03937,-0.0162 0.07469,-0.0325 0.07879,-0.0325 0.0039,0 0.02801,-0.008 0.05334,-0.0203 0.02517,-0.0122 0.133826,-0.058 0.241189,-0.1031 0.107362,-0.0451 0.222071,-0.0942 0.254868,-0.10878 0.03288,-0.0163 0.130418,-0.056 0.216917,-0.0921 0.08646,-0.0366 0.184078,-0.0775 0.216916,-0.0921 0.193496,-0.0848 0.236563,-0.1031 0.242408,-0.1031 0.0039,0 0.03856,-0.0162 0.07753,-0.0325 0.03897,-0.0163 0.07318,-0.0325 0.07586,-0.0325 0.0029,0 0.03045,-0.0122 0.06206,-0.0244 0.03166,-0.0122 0.101193,-0.0443 0.154853,-0.0666 0.162566,-0.0677 0.269684,-0.11406 0.29822,-0.12827 0.01827,-0.008 0.03694,-0.0366 0.05804,-0.0893 0.06267,-0.15302 0.238592,-0.58775 0.269766,-0.66662 0.111583,-0.2821 0.268344,-0.67222 0.285554,-0.71038 0.0077,-0.0162 0.02395,-0.0568 0.03531,-0.0869 0.01136,-0.0284 0.05383,-0.13476 0.09417,-0.23298 0.04019,-0.0986 0.08776,-0.21554 0.105414,-0.2602 0.01786,-0.0447 0.04684,-0.11811 0.06462,-0.16276 0.01786,-0.0447 0.04615,-0.11527 0.06275,-0.15708 0.08508,-0.21392 0.144868,-0.36126 0.15802,-0.39049 0.0077,-0.0162 0.02435,-0.0569 0.03572,-0.0869 0.01177,-0.0284 0.06856,-0.1713 0.126603,-0.31458 0.05804,-0.14328 0.118971,-0.29428 0.13537,-0.33609 0.0272,-0.0694 0.09551,-0.23827 0.387518,-0.95985 0.139389,-0.34461 0.143894,-0.35597 0.143894,-0.37221 0,-0.008 -0.08362,-0.15303 -0.185905,-0.32269 -0.102248,-0.16968 -0.201086,-0.33407 -0.219636,-0.36573 -0.353748,-0.60017 -0.469821,-0.78093 -0.966211,-1.50453 -0.04907,-0.0714 -0.120798,-0.17657 -0.159319,-0.23299 -0.03856,-0.0569 -0.09689,-0.14207 -0.129849,-0.18997 -0.03288,-0.0479 -0.102978,-0.15018 -0.155746,-0.22771 -0.05273,-0.0775 -0.121123,-0.17778 -0.151891,-0.22244 -0.03084,-0.0447 -0.08934,-0.13029 -0.130052,-0.18996 -0.04071,-0.0597 -0.104155,-0.15222 -0.140931,-0.2062 -0.03694,-0.0536 -0.103465,-0.1514 -0.148277,-0.21675 -0.04478,-0.0658 -0.113126,-0.16561 -0.15189,-0.22244 -0.03856,-0.0569 -0.107119,-0.15668 -0.15189,-0.22244 -0.04478,-0.0658 -0.11272,-0.1648 -0.150998,-0.22 -0.03815,-0.0556 -0.08175,-0.11974 -0.0966,-0.14288 -0.02679,-0.0414 -0.130661,-0.19362 -0.281659,-0.41265 -0.04318,-0.0625 -0.08824,-0.12988 -0.100096,-0.14896 -0.01177,-0.0203 -0.02638,-0.0366 -0.03207,-0.0366 -0.0061,0 -0.04299,0.008 -0.08305,0.0203 -0.04019,0.0122 -0.121569,0.0366 -0.181237,0.0548 -0.05962,0.0163 -0.154812,0.0467 -0.211477,0.0638 -0.09661,0.0284 -0.166138,0.0504 -0.433675,0.13071 -0.05962,0.0162 -0.157248,0.0471 -0.216916,0.0649 -0.290791,0.0873 -0.336618,0.10107 -0.412288,0.12421 -0.04477,0.0122 -0.142351,0.043 -0.216916,0.0649 -0.07456,0.0203 -0.179491,0.0536 -0.233193,0.0702 -0.0537,0.0162 -0.158628,0.0483 -0.233193,0.0706 -0.07456,0.0244 -0.172185,0.052 -0.216916,0.0654 -0.04477,0.0122 -0.142352,0.043 -0.216917,0.0649 -0.07456,0.0203 -0.172185,0.0512 -0.216916,0.0649 -0.04477,0.0122 -0.142351,0.043 -0.216916,0.0649 -0.07456,0.0203 -0.172186,0.0512 -0.216917,0.0649 -0.04477,0.0122 -0.130133,0.0406 -0.189801,0.0577 -0.05963,0.0163 -0.157248,0.0475 -0.216916,0.0653 -0.05963,0.0162 -0.159685,0.0483 -0.222356,0.067 -0.178112,0.0531 -0.324238,0.097 -0.403715,0.12137 -0.04019,0.0122 -0.07773,0.0284 -0.08354,0.0366 -0.0061,0.008 -0.09466,0.26628 -0.19727,0.57626 -0.33601,1.01449 -1.102113,3.30506 -1.140625,3.41043 -0.0207,0.0568 -0.05578,0.15181 -0.07781,0.21148 -0.02232,0.0597 -0.04907,0.13516 -0.05999,0.16805 -0.01096,0.0325 -0.03775,0.10837 -0.05971,0.16804 -0.02192,0.0596 -0.05383,0.14734 -0.07091,0.19524 -0.01705,0.0479 -0.04525,0.12583 -0.06255,0.17332 -0.01746,0.0479 -0.05861,0.16236 -0.09198,0.25491 -0.03328,0.0926 -0.0783,0.21676 -0.09994,0.27642 -0.04092,0.11244 -0.109513,0.30321 -0.221746,0.61592 l -0.06531,0.18226 0.02882,0.0455 c 0.01583,0.0244 0.138535,0.21148 0.272728,0.41439 0.134192,0.20295 0.344046,0.52005 0.466326,0.70498 0.122259,0.18469 0.325658,0.49236 0.452,0.68326 0.126318,0.19078 0.319977,0.48372 0.430338,0.65075 0.110367,0.16683 0.302319,0.45737 0.426571,0.64531 0.467885,0.70749 0.729146,1.10317 0.775622,1.17457 0.05521,0.0848 0.0421,0.0832 0.199828,0.0203 z M 71.225105,150.9481 c -0.01218,-0.0325 -0.02557,-0.0686 -0.02963,-0.0824 -0.0039,-0.0122 -0.0097,-0.0244 -0.01258,-0.0203 -0.0061,0.004 0.01177,0.0661 0.03856,0.12867 0.02598,0.0613 0.02923,0.0406 0.0039,-0.0244 z m -0.02314,-0.36572 c 0.05626,-0.0414 0.157289,-0.11569 0.224588,-0.16521 0.0673,-0.0496 0.14296,-0.10512 0.168126,-0.1238 0.02517,-0.0203 0.104319,-0.0767 0.17588,-0.12908 0.24675,-0.18102 0.293023,-0.21472 0.34705,-0.25449 0.100055,-0.0735 0.34368,-0.25248 0.455516,-0.33407 0.02395,-0.0162 0.121488,-0.0893 0.216916,-0.15952 0.282389,-0.20782 0.403389,-0.29672 0.546512,-0.40144 0.04891,-0.0366 0.11203,-0.082 0.140322,-0.1031 0.04928,-0.0366 0.214684,-0.1579 0.375992,-0.27642 0.04173,-0.0325 0.128874,-0.0946 0.193576,-0.14166 0.170806,-0.12502 0.346969,-0.2541 0.446314,-0.32757 0.08865,-0.0654 0.312385,-0.22974 0.390441,-0.28657 0.02395,-0.0162 0.08492,-0.0626 0.135573,-0.0999 0.0794,-0.0589 0.15185,-0.11203 0.39584,-0.29063 0.02395,-0.0162 0.09778,-0.0718 0.164189,-0.12056 0.06649,-0.0487 0.167924,-0.12298 0.225481,-0.16479 0.05755,-0.0418 0.160414,-0.11731 0.228485,-0.16804 0.06807,-0.0508 0.17113,-0.12624 0.228931,-0.16805 0.05784,-0.0418 0.119012,-0.0873 0.136019,-0.10148 l 0.03085,-0.0244 -0.0029,-2.46747 -0.0029,-2.46746 -0.05419,-0.0203 c -0.02963,-0.0122 -0.09571,-0.0366 -0.14641,-0.0524 -0.05066,-0.0163 -0.219068,-0.0751 -0.374165,-0.12868 -0.37595,-0.1303 -0.783026,-0.27114 -1.133363,-0.39251 -0.15806,-0.0547 -0.328906,-0.11406 -0.379604,-0.13191 -0.05066,-0.0162 -0.133665,-0.0463 -0.184363,-0.0629 -0.05066,-0.0163 -0.18493,-0.0634 -0.298259,-0.1031 -0.113329,-0.0406 -0.232909,-0.0816 -0.265706,-0.0921 -0.03288,-0.0122 -0.152377,-0.052 -0.265707,-0.0922 -0.113329,-0.0406 -0.240215,-0.084 -0.281983,-0.0974 -0.04173,-0.0122 -0.168654,-0.0577 -0.281983,-0.0974 -0.113329,-0.0406 -0.247562,-0.0864 -0.29826,-0.1031 -0.05066,-0.0163 -0.184931,-0.0629 -0.29826,-0.1031 -0.113329,-0.0406 -0.232909,-0.0816 -0.265706,-0.0921 -0.03288,-0.0122 -0.152378,-0.052 -0.265706,-0.0921 -0.113329,-0.0406 -0.240215,-0.084 -0.281983,-0.0974 -0.04173,-0.0122 -0.168655,-0.0577 -0.281984,-0.0974 -0.113329,-0.0406 -0.256613,-0.0893 -0.318392,-0.10959 l -0.112355,-0.0366 -0.02963,0.0244 c -0.01624,0.0122 -0.04802,0.0406 -0.07034,0.0565 -0.02232,0.0163 -0.12441,0.10067 -0.22674,0.18469 -0.102329,0.084 -0.227551,0.18631 -0.278248,0.22771 -0.05066,0.0414 -0.109555,0.0901 -0.130824,0.10837 -0.02111,0.0203 -0.05755,0.0479 -0.08066,0.0658 -0.04084,0.0325 -0.102816,0.0824 -0.364017,0.29794 -0.06897,0.0569 -0.185458,0.15221 -0.258806,0.21188 -0.07331,0.0597 -0.165731,0.13558 -0.205347,0.16845 -0.03937,0.0325 -0.120798,0.0999 -0.180426,0.14815 -0.05962,0.0483 -0.184768,0.1506 -0.278005,0.22731 -0.09328,0.0767 -0.183551,0.1506 -0.200639,0.16399 -0.01705,0.0122 -0.07692,0.0625 -0.132935,0.10838 -0.240499,0.19808 -0.374123,0.30767 -0.504891,0.41463 -0.07664,0.0626 -0.174742,0.14329 -0.217971,0.17901 -0.04327,0.0366 -0.09502,0.0783 -0.114993,0.0942 -0.04761,0.0366 -0.339866,0.27846 -0.549675,0.45166 -0.09141,0.0755 -0.179532,0.14694 -0.195768,0.15912 -0.01624,0.0122 -0.09413,0.0751 -0.173241,0.14044 l -0.143691,0.11893 0.0069,0.12542 c 0.0039,0.069 0.0134,0.26425 0.02192,0.43436 0.0089,0.17008 0.02273,0.4482 0.03207,0.6182 0.0089,0.17007 0.02354,0.45551 0.03247,0.63447 0.0089,0.179 0.02354,0.45957 0.03206,0.62359 0.0089,0.16399 0.0211,0.41297 0.0276,0.55313 0.0069,0.14004 0.01624,0.32311 0.02192,0.40672 0.0061,0.0836 0.01543,0.26181 0.02151,0.39576 0.02557,0.55857 0.03369,0.71854 0.0438,0.87306 0.0061,0.0893 0.02029,0.37263 0.03206,0.62904 0.03085,0.66374 0.03409,0.70879 0.04907,0.72141 0.01136,0.008 0.361216,0.11366 0.579995,0.17292 0.03856,0.0122 0.104643,0.0284 0.14641,0.0414 0.04173,0.0122 0.129606,0.0366 0.195201,0.0565 0.06564,0.0203 0.158344,0.0455 0.206079,0.0593 0.190207,0.0556 0.476635,0.13801 0.69953,0.20174 0.06267,0.0162 0.162687,0.0467 0.222356,0.0642 0.05962,0.0162 0.160901,0.0467 0.225034,0.0645 0.298382,0.0848 0.50856,0.14531 0.664295,0.19078 0.04769,0.0122 0.147749,0.0427 0.222314,0.0646 0.07456,0.0203 0.184363,0.0531 0.244031,0.0706 0.157978,0.0455 0.32574,0.0938 0.455513,0.1307 0.06267,0.0162 0.165122,0.0471 0.227753,0.0649 0.220854,0.0634 0.347172,0.0994 0.357888,0.10309 0.02557,0.008 0.03937,0.002 0.136344,-0.0702 z m 11.064746,-0.008 c 0.0729,-0.0203 0.172754,-0.0508 0.22195,-0.0649 0.142879,-0.0414 0.258643,-0.0751 0.403998,-0.11812 0.07456,-0.0203 0.174621,-0.0512 0.222356,-0.0649 0.04769,-0.0122 0.133137,-0.0366 0.189802,-0.0544 0.05667,-0.0163 0.139631,-0.041 0.184362,-0.0548 0.04477,-0.0122 0.135045,-0.0406 0.20064,-0.0596 0.06564,-0.0203 0.16565,-0.0483 0.222315,-0.065 0.05667,-0.0162 0.15672,-0.0459 0.222355,-0.0649 0.06564,-0.0203 0.165651,-0.0483 0.222315,-0.0653 0.05667,-0.0162 0.154285,-0.0459 0.216916,-0.0641 0.06267,-0.0162 0.162688,-0.0475 0.222356,-0.0649 0.05963,-0.0163 0.162119,-0.0475 0.227754,-0.0666 0.06564,-0.0203 0.165651,-0.0487 0.222315,-0.0653 0.05667,-0.0162 0.15672,-0.0463 0.222355,-0.0649 0.06564,-0.0203 0.168127,-0.0487 0.227754,-0.0661 0.05963,-0.0162 0.159684,-0.0471 0.222355,-0.0653 0.06267,-0.0203 0.160252,-0.0471 0.216917,-0.0634 0.05667,-0.0163 0.15185,-0.0447 0.211477,-0.0625 0.05963,-0.0162 0.12165,-0.0366 0.137805,-0.0406 0.04063,-0.008 0.03531,0.0406 0.06316,-0.59762 0.0061,-0.13719 0.02029,-0.4178 0.03206,-0.62359 0.01177,-0.20579 0.02639,-0.49618 0.03288,-0.64531 0.0061,-0.14896 0.01583,-0.34421 0.02151,-0.43383 0.0061,-0.0897 0.01746,-0.31377 0.02679,-0.4989 0.0089,-0.18509 0.02395,-0.47531 0.03288,-0.64531 0.0089,-0.17007 0.02354,-0.45307 0.03247,-0.62903 0.03045,-0.60196 0.04871,-0.94901 0.05881,-1.12254 0.0061,-0.0954 0.01543,-0.30524 0.02192,-0.46634 0.0069,-0.16114 0.01421,-0.30809 0.01705,-0.32716 0.0049,-0.0325 -4.14e-4,-0.0406 -0.08597,-0.10838 -0.143691,-0.11649 -0.385855,-0.31052 -0.417373,-0.33447 -0.01583,-0.0122 -0.09701,-0.0767 -0.180507,-0.1441 -0.08353,-0.0673 -0.159196,-0.12826 -0.168207,-0.13557 -0.0089,-0.008 -0.08873,-0.0718 -0.17726,-0.14328 -0.08845,-0.0718 -0.174093,-0.14004 -0.190167,-0.15181 -0.01624,-0.0122 -0.07741,-0.0605 -0.136263,-0.10838 -0.05881,-0.0479 -0.131838,-0.10634 -0.162199,-0.12989 -0.03045,-0.0244 -0.121813,-0.097 -0.203197,-0.16277 -0.294688,-0.23826 -0.404689,-0.32635 -0.459725,-0.36896 -0.03085,-0.0244 -0.189032,-0.15059 -0.351516,-0.28211 -0.162484,-0.13111 -0.309057,-0.24841 -0.325698,-0.26018 -0.01664,-0.0122 -0.08086,-0.0629 -0.142717,-0.11366 -0.06186,-0.0504 -0.408931,-0.32919 -0.771312,-0.61941 l -0.658871,-0.52764 -0.07318,0.0244 c -0.04019,0.0122 -0.122015,0.0422 -0.181643,0.0641 -0.05963,0.0203 -0.142636,0.0512 -0.184363,0.0649 -0.04173,0.0163 -0.124735,0.0439 -0.184363,0.0653 -0.05962,0.0203 -0.135288,0.0487 -0.168126,0.0597 -0.03288,0.0122 -0.115764,0.0406 -0.184362,0.0649 -0.06856,0.0244 -0.156437,0.056 -0.195241,0.0698 -0.03856,0.0122 -0.404811,0.14328 -0.813416,0.28819 -0.408598,0.14491 -0.781954,0.27683 -0.829681,0.29388 -0.04769,0.0162 -0.142879,0.0504 -0.211478,0.0747 -0.06856,0.0244 -0.151564,0.054 -0.184361,0.0649 -0.03288,0.0122 -0.108459,0.0365 -0.168087,0.0597 -0.05962,0.0203 -0.135288,0.0483 -0.168126,0.0592 -0.03288,0.0122 -0.115765,0.0406 -0.184363,0.0658 -0.06856,0.0244 -0.151565,0.0544 -0.184362,0.0654 -0.03287,0.0122 -0.106023,0.0366 -0.162687,0.0572 -0.207338,0.0747 -1.406896,0.49903 -1.485837,0.52574 -0.04478,0.0163 -0.08492,0.0325 -0.08934,0.0406 -0.0039,0.008 -0.0077,1.11543 -0.0077,2.4645 l -1.66e-4,2.45281 0.11617,0.0848 c 0.229012,0.16763 0.207094,0.15181 0.485716,0.35395 0.113369,0.0824 0.218337,0.15911 0.233234,0.17047 0.01502,0.0122 0.05962,0.0443 0.09941,0.0726 0.03978,0.0284 0.139023,0.10066 0.220569,0.16034 0.08155,0.0597 0.161998,0.11811 0.178761,0.13029 0.119012,0.0848 0.214116,0.15343 0.227917,0.1648 0.0207,0.0162 0.437571,0.32107 0.488049,0.35598 0.0207,0.0162 0.0729,0.052 0.115643,0.0836 0.09316,0.0686 0.362069,0.26546 0.404486,0.29591 0.01664,0.0122 0.06068,0.0439 0.09807,0.0706 0.03734,0.0284 0.08313,0.0597 0.10172,0.073 0.01868,0.0122 0.06876,0.05 0.111421,0.0812 0.09571,0.0706 0.363286,0.26628 0.404485,0.29591 0.01664,0.0122 0.06088,0.0439 0.09819,0.0706 0.03734,0.0284 0.08147,0.0585 0.09807,0.0706 0.01664,0.0122 0.133461,0.0974 0.259577,0.18996 0.126115,0.0926 0.239931,0.17535 0.252919,0.18429 0.02435,0.0162 0.120921,0.0873 0.327486,0.23867 0.129443,0.095 0.305931,0.22325 0.357888,0.26018 0.01786,0.0122 0.08686,0.0629 0.153351,0.11203 0.06641,0.0487 0.167923,0.123 0.225481,0.1648 0.05755,0.0418 0.134964,0.0982 0.172023,0.12583 0.07192,0.0536 0.162972,0.11731 0.168045,0.11772 0.002,2.4e-4 0.06267,-0.0162 0.135573,-0.0406 z m -18.214992,-6.6576 c 0.02232,-0.008 0.111096,-0.041 0.197595,-0.0698 0.159602,-0.0535 0.390157,-0.13272 0.791732,-0.27073 0.122259,-0.0422 0.285758,-0.0982 0.363327,-0.12461 0.07753,-0.0284 0.241027,-0.0828 0.363327,-0.12543 0.122299,-0.0426 0.24675,-0.0848 0.276544,-0.0942 0.04948,-0.0163 0.152214,-0.0905 0.320625,-0.23542 0.0211,-0.0203 0.05541,-0.0463 0.07595,-0.0625 0.04456,-0.0366 0.364869,-0.29672 0.586892,-0.4795 0.08755,-0.0718 0.21444,-0.17576 0.281983,-0.23056 0.123761,-0.10066 0.41734,-0.34137 0.985748,-0.80779 0.07497,-0.0613 0.18428,-0.151 0.242934,-0.19849 0.05865,-0.0479 0.156843,-0.12827 0.218216,-0.179 0.06137,-0.0508 0.171414,-0.14086 0.244558,-0.20052 0.07318,-0.0596 0.194267,-0.15871 0.269116,-0.22001 0.07485,-0.0613 0.179248,-0.14693 0.231976,-0.18996 0.05273,-0.043 0.158222,-0.12948 0.234451,-0.19199 0.07623,-0.0625 0.198407,-0.16277 0.27147,-0.22244 0.0731,-0.0596 0.183064,-0.14978 0.244437,-0.20052 0.06129,-0.0508 0.143204,-0.1177 0.181927,-0.14896 0.0494,-0.0406 0.08167,-0.0771 0.107971,-0.12462 0.0207,-0.0366 0.04891,-0.0877 0.06255,-0.11162 0.0138,-0.0244 0.05265,-0.0921 0.08638,-0.15181 0.09454,-0.16723 0.202588,-0.3572 0.274312,-0.48262 0.03572,-0.0625 0.07607,-0.13354 0.08942,-0.15708 0.100705,-0.17982 0.155543,-0.27562 0.17255,-0.30119 0.01096,-0.0163 0.01664,-0.0325 0.01299,-0.0366 -0.0039,-0.004 -0.03978,0.004 -0.08009,0.0203 -0.04019,0.0163 -0.119621,0.0459 -0.176285,0.0669 -0.05667,0.0203 -0.12502,0.0479 -0.15185,0.0593 -0.02679,0.0122 -0.09031,0.0366 -0.141011,0.0585 -0.496713,0.20417 -1.175234,0.52995 -1.553619,0.74585 -0.04019,0.0244 -0.10858,0.0617 -0.15185,0.0865 -0.242407,0.13719 -0.629203,0.37546 -0.875779,0.53896 -0.146857,0.0974 -0.538468,0.37019 -0.574816,0.40023 -0.0089,0.008 -0.06088,0.0467 -0.115399,0.0869 -0.126359,0.0938 -0.151444,0.11284 -0.257954,0.19686 -0.04822,0.0366 -0.107119,0.084 -0.130945,0.1027 -0.09868,0.0763 -0.487753,0.40428 -0.602836,0.50787 -0.455248,0.41012 -0.856341,0.8112 -1.266452,1.26646 -0.103668,0.11528 -0.43147,0.50414 -0.507891,0.60281 -0.02882,0.0366 -0.150428,0.1924 -0.19114,0.24395 -0.01705,0.0203 -0.150916,0.20133 -0.226009,0.30362 -0.09454,0.12868 -0.237009,0.33326 -0.237009,0.34056 0,0.008 0.0077,0.008 0.05184,-0.0122 z m 24.567515,-0.23786 c 0,-0.004 -0.06543,-0.099 -0.09425,-0.13557 -0.0069,-0.008 -0.0595,-0.0787 -0.116617,-0.15505 -0.05707,-0.0763 -0.131798,-0.17414 -0.166016,-0.21676 -0.03409,-0.043 -0.07899,-0.0999 -0.09933,-0.12664 -0.09839,-0.12949 -0.426798,-0.51392 -0.627942,-0.73494 -0.348348,-0.38276 -0.725613,-0.75649 -1.14893,-1.1382 -0.12238,-0.11041 -0.518849,-0.44418 -0.610146,-0.51376 -0.02679,-0.0203 -0.0854,-0.0665 -0.130133,-0.10229 -0.04478,-0.0365 -0.142352,-0.1104 -0.216916,-0.16561 -0.07456,-0.0551 -0.142879,-0.10675 -0.15185,-0.11405 -0.0089,-0.008 -0.106551,-0.0771 -0.216916,-0.15465 -0.396449,-0.27927 -0.822918,-0.5511 -1.198431,-0.76421 -0.05962,-0.0325 -0.142635,-0.0811 -0.184362,-0.10512 -0.156923,-0.0897 -0.647705,-0.34096 -0.857481,-0.43919 -0.176813,-0.0828 -0.374529,-0.17252 -0.438562,-0.1989 -0.03288,-0.0122 -0.101151,-0.0427 -0.151849,-0.0645 -0.133746,-0.0577 -0.260916,-0.10634 -0.265666,-0.10147 -0.0061,0.004 0.527154,1.06485 0.542884,1.07735 0.01136,0.008 0.56699,0.45608 0.622916,0.50121 0.01786,0.0162 0.286692,0.23016 0.432867,0.34746 0.05017,0.0406 0.12579,0.10108 0.168125,0.13517 0.0423,0.0325 0.162323,0.1307 0.266722,0.21432 0.104399,0.0836 0.265462,0.2131 0.357887,0.28738 0.225643,0.18144 0.489621,0.39373 0.510054,0.40976 0.0089,0.008 0.08893,0.0718 0.177422,0.14328 0.08845,0.0715 0.173727,0.13964 0.189477,0.15181 0.01583,0.0122 0.09206,0.073 0.169628,0.13599 0.07753,0.0629 0.15392,0.1242 0.16975,0.13597 0.01583,0.0122 0.08837,0.0698 0.161064,0.1299 0.07282,0.0597 0.160616,0.13029 0.195281,0.15708 0.0345,0.0284 0.220082,0.17576 0.412137,0.33081 0.192035,0.15506 0.377331,0.30403 0.411756,0.33082 0.0345,0.0284 0.122989,0.0978 0.196823,0.15789 l 0.134234,0.10919 0.15185,0.0467 c 0.08353,0.0244 0.195768,0.0604 0.249429,0.0775 0.0537,0.0162 0.192765,0.0604 0.309098,0.0966 0.116332,0.0366 0.248089,0.0775 0.29282,0.0913 0.04478,0.0122 0.139916,0.0439 0.211477,0.0661 0.0716,0.0244 0.171618,0.0544 0.222315,0.071 0.09226,0.0284 0.119296,0.0366 0.119296,0.0244 z m -12.018951,-2.10948 c 0.02557,-0.0122 0.06718,-0.0284 0.09218,-0.0325 0.02517,-0.008 0.06523,-0.0203 0.08942,-0.0325 0.02435,-0.0122 0.0671,-0.0244 0.09531,-0.0325 0.02842,-0.008 0.04911,-0.0162 0.04635,-0.0162 -0.0061,-0.004 -0.117713,0.0244 -0.163905,0.0459 -0.01786,0.008 -0.07497,0.0284 -0.126927,0.0426 -0.05196,0.0163 -0.0973,0.0325 -0.100949,0.0406 -0.01015,0.0162 0.01746,0.0122 0.06856,-0.0122 z m 0.463017,-0.16277 c 0.0138,-0.004 0.01583,-0.008 0.0061,-0.008 -0.0089,0 -0.02598,0.004 -0.03816,0.008 -0.0138,0.004 -0.01583,0.008 -0.0061,0.008 0.0089,0 0.02598,-0.004 0.03816,-0.008 z"
       id="path1803"
       inkscape:connector-curvature="0" />
  </g>
</svg>
